<svg id="Layer_1" data-name="Layer 1" xmlns="http://www.w3.org/2000/svg" viewBox="0 0 874.01 617.95">
  <defs>
    <style>
      .cls-1 {
        fill: #474849;
      }

      .cls-2 {
        fill: #fff;
      }
    </style>
  </defs>
  <title>DropperTypefaceAnimation</title>
  <rect class="cls-1" x="-0.31" y="-0.01" width="874" height="617.98"/>
  <g>
    <path class="cls-2" d="M232.6,247.61h13.57l7.55-38.78c3.2-16.64-.77-28.29-17.67-28.29-9.47,0-16.25,3.2-22.27,12.29.64-2.56,1.67-7,2.18-10.11L221.08,157H207.76L190,247.61h13.44l6.53-33.92c2.43-12.67,9-21.76,21.25-21.76,9.6,0,11.14,5.76,9.09,16.51Z"/>
    <path class="cls-2" d="M328.34,218.43A22,22,0,0,0,329,215c4-20.61-3.45-34.43-23.68-34.43-19.2,0-33,13.57-36.86,33.67-4.1,20.86,4.73,34.94,24.7,34.94,15.1,0,27-7,32.51-21.25H312.47c-3.71,6.66-9.86,10.5-18.43,10.5-10.76,0-14.6-7.68-12.8-20Zm-23.55-27c10.24,0,13.82,5.76,12.29,17.41H283.41C286.1,199.48,293.65,191.42,304.79,191.42Z"/>
    <path class="cls-2" d="M351.12,182.08c-.76,4.48-2.17,10.88-2.68,13.69l-10,51.84h13.44l6.27-32.38c2.44-12.67,10.5-21.38,23.94-21.38.26,0,1.15,0,2.56.13l1.79-13.31a36.64,36.64,0,0,0-3.84-.13c-8.57.26-16.13,5.38-21.12,14.21.64-2.95,1.92-9.22,2.56-12.67Z"/>
    <polygon class="cls-2" points="402.83 171.19 416.66 171.19 419.48 156.99 405.65 156.99 402.83 171.19"/>
    <polygon class="cls-2" points="388.11 247.62 401.68 247.62 414.48 182.08 400.91 182.08 388.11 247.62"/>
    <path class="cls-2" d="M424.72,193.21h10.75l-7.17,36c-2.3,12.55.65,19.46,13.45,19.46a45.58,45.58,0,0,0,9.21-.77l2.18-10.62a33.79,33.79,0,0,1-6.15.64c-6,0-6.4-2.31-5.12-9l7-35.72h13.44l2-10.49H451l3.71-19.59H441.49l-3.84,19.59H426.77Z"/>
    <path class="cls-2" d="M522.9,247.61c.51-4.35,1.92-11.64,2.43-14.2l7-36.1,3.07-15.23H522.51c-.64,2.3-1.41,6.4-2,10.36-2.05-7.68-7.94-11.9-17.93-11.9-17.92,0-30.33,15.23-34.05,33.79-3.58,19.2,3.08,34.82,20.74,34.82,9.22,0,16.9-3.2,22.53-12.16A107,107,0,0,0,510,247.61ZM493.46,238c-10.88,0-14-9.6-11.4-22,2.56-13.57,10.12-24.07,22.66-24.07,11.65,0,14.08,8.32,11.52,21.63C513.42,227.65,506.26,238,493.46,238Z"/>
    <path class="cls-2" d="M597.65,192.44c-2.43-7.8-8.45-11.9-18.56-11.9-17.41,0-30.08,14.21-33.8,33-3.58,19.21,3.59,33.54,21.76,33.54,9,0,16.26-2.56,21.89-11l-.64,3.2c-3.07,14.73-8.32,24.45-23.17,24.45-7.68,0-12.41-2-12.67-9.6H539.41c-1.28,13.06,9,20.23,25.08,20.23,21,0,32.26-11.14,36.61-33.8l8.58-43.52c.51-2.56,1.79-9.21,2.82-15H599.82A93.27,93.27,0,0,0,597.65,192.44Zm-4.1,20.49c-2.56,13.44-9.85,23.29-22.78,23.29-10.63,0-14.34-8.32-11.91-20.35,2.43-12.93,10.11-23.94,22.91-23.94C593.3,191.93,596.11,199.87,593.55,212.93Z"/>
    <path class="cls-2" d="M658.7,180.54c-19.2,0-33,13.57-36.86,33.67-4.1,20.86,4.73,34.94,24.7,34.94,15.11,0,27-7,32.52-21.25H665.87c-3.71,6.66-9.86,10.5-18.43,10.5-10.75,0-14.59-7.68-12.8-20h47.1a22,22,0,0,0,.64-3.46C686.35,194.36,678.93,180.54,658.7,180.54Zm11.78,28.29H636.81c2.69-9.35,10.24-17.41,21.38-17.41C668.43,191.42,672,197.18,670.48,208.83Z"/>
  </g>
  <g>
    <path class="cls-2" d="M639.62,436.3l-.09-3.37-1.17-43.74h-.85l-391.68.32-.31,44.68V435l390.74,1.25ZM440.9,433.57l-194.55.62-.1-14.26,194.88.47Zm.77-43.69-.25,14.21-195.28.31-.1-14.68Zm195.82.16-.37,13.73-194.67.32-.25-14.21Zm-.41,15.42-.35,12.9-194,.46-.24-13.68Zm-195.68-.32-.24,13.69-194.91.47-.1-14.47Zm195.27,15.73-.33,12.07L443,433.56l-.23-13.15Z"/>
    <path class="cls-2" d="M202.09,415.72A1.86,1.86,0,0,1,200,414.1H198.6c.14,1.81,1.36,2.71,3.44,2.71,1.92,0,3.35-.84,3.35-2.52,0-1.52-1.12-2.06-3.29-2.54-1.07-.24-1.85-.45-1.85-1.25s.69-1.14,1.68-1.14,1.84.41,1.94,1.4h1.34c-.05-1.59-1.36-2.5-3.22-2.5s-3.13.82-3.13,2.42,1.2,1.93,3.15,2.38c1.2.27,2,.47,2,1.35S203.13,415.72,202.09,415.72Z"/>
    <rect class="cls-2" x="207.19" y="405.28" width="1.39" height="11.33"/>
    <rect class="cls-2" x="210.97" y="405.28" width="1.44" height="1.68"/>
    <rect class="cls-2" x="210.98" y="408.45" width="1.41" height="8.16"/>
    <path class="cls-2" d="M226.2,416.61v-5.09c0-1.93-.73-3.26-2.62-3.26a2.58,2.58,0,0,0-2.61,1.57,2.22,2.22,0,0,0-2.32-1.57,2.56,2.56,0,0,0-2.48,1.57c0-.45,0-1,0-1.38h-1.37c0,.58,0,1.38,0,1.76v6.4h1.39v-4.33c0-1.6.56-2.8,2-2.8,1.2,0,1.59.73,1.59,2.14v5h1.4v-4.54c0-1.52.6-2.59,2-2.59,1.09,0,1.62.72,1.62,2v5.12Z"/>
    <path class="cls-2" d="M429.31,464.28h-2.19v9.48c0,.32,0,1.09,0,1.85h2.16c0-.28,0-.7,0-1.08a2.39,2.39,0,0,0,2.34,1.28c2.35,0,3.46-2,3.46-4.47,0-2.3-1.09-4.18-3.35-4.18a2.43,2.43,0,0,0-2.43,1.36c0-.38,0-.78,0-1.17ZM431,469c1.24,0,1.78,1,1.78,2.44s-.48,2.58-1.76,2.58-1.81-1.06-1.81-2.53S429.68,469,431,469Z"/>
    <path class="cls-2" d="M444.52,471.44c0-2.53-1.44-4.28-4.07-4.28s-4.13,1.72-4.13,4.29,1.39,4.36,4.1,4.36S444.52,474.11,444.52,471.44Zm-6,0c0-1.4.51-2.5,1.86-2.5s1.84,1,1.84,2.51-.5,2.6-1.82,2.6S438.56,472.94,438.56,471.44Z"/>
    <rect class="cls-2" x="446.1" y="464.28" width="2.21" height="11.33"/>
    <path class="cls-2" d="M453.41,467.16c-2.3,0-3.52,1.83-3.52,4.41,0,2.33,1.07,4.24,3.33,4.24a2.49,2.49,0,0,0,2.48-1.39c0,.38,0,.91,0,1.19h2.14c0-.76,0-1.66,0-1.85v-9.48h-2.2v3.07c0,.39,0,.66,0,1A2.22,2.22,0,0,0,453.41,467.16Zm2.29,4.34c0,1.47-.45,2.52-1.79,2.52s-1.78-1.11-1.78-2.55.46-2.46,1.81-2.46S455.7,470,455.7,471.5Z"/>
    <path class="cls-2" d="M419.35,355.61v-4.2c0-1.56.79-2.74,2.44-2.74a3.07,3.07,0,0,1,.38,0v-1.42h-.37a2.66,2.66,0,0,0-2.49,1.84c0-.45,0-1.26,0-1.65h-1.38c0,.58,0,1.38,0,1.76v6.4Z"/>
    <path class="cls-2" d="M423,351.6c0,2.48,1.39,4.21,3.74,4.21a3.36,3.36,0,0,0,3.62-2.66H429a2,2,0,0,1-2.15,1.49c-1.55,0-2.29-1.15-2.35-2.79h6v-.43c0-2.48-1.2-4.16-3.63-4.16S423,349.07,423,351.6Zm6.05-.83h-4.55a2.26,2.26,0,0,1,2.31-2.34C428.27,348.43,429,349.28,429,350.77Z"/>
    <path class="cls-2" d="M435.55,357.81c-1.12,0-1.83-.37-2.07-1.33h-1.41c.18,1.65,1.54,2.5,3.44,2.5,2.6,0,3.85-1.51,3.85-4.34v-5.43c0-.38,0-1.18,0-1.76H438c0,.39,0,.91,0,1.38a2.53,2.53,0,0,0-2.6-1.57c-2.19,0-3.52,1.81-3.52,4.27s1.23,4,3.43,4a2.6,2.6,0,0,0,2.65-1.51v.58C438,356.59,437.5,357.81,435.55,357.81Zm.06-3.39c-1.47,0-2.26-1.17-2.26-2.85s.71-3.11,2.36-3.11,2.29,1.17,2.29,3S437.29,354.42,435.61,354.42Z"/>
    <path class="cls-2" d="M441.77,347.45v5.09c0,2,.83,3.27,2.77,3.27a2.55,2.55,0,0,0,2.61-1.65c0,.45,0,1.07,0,1.45h1.36c0-.57,0-1.47,0-1.85v-6.31h-1.43v4c0,1.84-.49,3.1-2.17,3.1-1.24,0-1.72-.82-1.72-2.19v-4.95Z"/>
    <rect class="cls-2" x="450.97" y="344.28" width="1.41" height="11.33"/>
    <path class="cls-2" d="M458.41,350.73c-2.74,0-4.13.8-4.13,2.69a2.45,2.45,0,0,0,2.74,2.39,3,3,0,0,0,2.9-1.57,6.52,6.52,0,0,0,.16,1.37h1.34c0-.24-.16-1.34-.16-1.72V350c0-1.91-1.14-2.77-3.28-2.77-1.84,0-3.19.77-3.27,2.56h1.36c.13-1,.8-1.44,1.88-1.44s1.92.4,1.92,1.52v.85C459.53,350.73,458.54,350.73,458.41,350.73Zm1.47,1.08V352a2.41,2.41,0,0,1-2.49,2.71c-.9,0-1.67-.42-1.67-1.35,0-1.26,1.17-1.57,2.9-1.57C459,351.77,459.44,351.79,459.88,351.81Z"/>
    <path class="cls-2" d="M465.1,355.61v-4.2c0-1.56.78-2.74,2.43-2.74a3.07,3.07,0,0,1,.38,0v-1.42h-.36a2.67,2.67,0,0,0-2.5,1.84c0-.45,0-1.26,0-1.65h-1.37c0,.58,0,1.38,0,1.76v6.4Z"/>
    <path class="cls-2" d="M191.94,349.1c0-.45,0-1.26,0-1.65h-1.38c0,.58,0,1.38,0,1.76v6.4H192v-4.2c0-1.56.79-2.74,2.44-2.74a3.15,3.15,0,0,1,.38,0v-1.42h-.37A2.68,2.68,0,0,0,191.94,349.1Z"/>
    <path class="cls-2" d="M199.43,355.81c2.6,0,3.92-1.76,3.92-4.37s-1.37-4.18-3.82-4.18-3.91,1.81-3.91,4.32S197,355.81,199.43,355.81Zm0-7.37c1.67,0,2.43,1.28,2.43,3s-.68,3.15-2.41,3.15-2.42-1.31-2.42-3.05S197.78,348.44,199.48,348.44Z"/>
    <path class="cls-2" d="M213.71,348.48c1.09,0,1.61.72,1.61,2v5.12h1.43v-5.09c0-1.93-.74-3.26-2.64-3.26a2.6,2.6,0,0,0-2.63,1.57,2.22,2.22,0,0,0-2.33-1.57,2.58,2.58,0,0,0-2.5,1.57c0-.45,0-1,0-1.38h-1.39c0,.58,0,1.38,0,1.76v6.4h1.4v-4.33c0-1.6.58-2.8,2-2.8,1.2,0,1.58.73,1.58,2.14v5h1.43v-4.54C211.71,349.55,212.3,348.48,213.71,348.48Z"/>
    <path class="cls-2" d="M222.73,350.73c-2.74,0-4.13.8-4.13,2.69a2.45,2.45,0,0,0,2.74,2.39,3,3,0,0,0,2.89-1.57,7.26,7.26,0,0,0,.16,1.37h1.35c0-.24-.16-1.34-.16-1.72V350c0-1.91-1.14-2.77-3.28-2.77-1.84,0-3.19.77-3.27,2.56h1.36c.13-1,.8-1.44,1.87-1.44s1.93.4,1.93,1.52v.85C223.85,350.73,222.86,350.73,222.73,350.73Zm1.47,1.08V352a2.41,2.41,0,0,1-2.5,2.71c-.89,0-1.66-.42-1.66-1.35,0-1.26,1.17-1.57,2.9-1.57C223.32,351.77,223.75,351.79,224.2,351.81Z"/>
    <path class="cls-2" d="M234.84,355.61v-5c0-2-.73-3.38-2.78-3.38a2.69,2.69,0,0,0-2.69,1.59c0-.45,0-1,0-1.4H228c0,.58,0,1.38,0,1.76v6.4h1.41v-4.22c0-1.78.62-2.91,2.24-2.91,1.28,0,1.76.8,1.76,2.27v4.86Z"/>
    <polygon class="cls-2" points="652.84 344.28 651.38 344.28 651.05 345.96 652.51 345.96 652.84 344.28"/>
    <polygon class="cls-2" points="649.19 355.62 650.62 355.62 652.2 347.45 650.78 347.45 649.19 355.62"/>
    <path class="cls-2" d="M655.59,345.05l-.48,2.47H653.7l-.22,1.13h1.39l-.91,4.68c-.29,1.53,0,2.43,1.52,2.43a4.94,4.94,0,0,0,1.12-.11l.24-1.15a5.56,5.56,0,0,1-.81.08c-.79,0-.84-.36-.66-1.24l.91-4.69H658l.22-1.13H656.5l.49-2.47Z"/>
    <path class="cls-2" d="M665,348.83a2,2,0,0,0-2.29-1.57c-2.24,0-3.84,1.91-4.29,4.24s.43,4.31,2.61,4.31a3.27,3.27,0,0,0,2.93-1.57c-.08.35-.19.93-.24,1.37h1.36c0-.48.22-1.42.3-1.79l.9-4.54.37-1.83h-1.38C665.21,347.77,665.1,348.32,665,348.83Zm-.5,2.53c-.37,1.87-1.34,3.25-3,3.25-1.47,0-1.94-1.28-1.6-2.95s1.38-3.2,3-3.2S664.86,349.61,664.52,351.36Z"/>
    <polygon class="cls-2" points="671.14 344.28 669.74 344.28 667.53 355.62 668.94 355.62 671.14 344.28"/>
    <polygon class="cls-2" points="673.26 345.96 674.71 345.96 675.05 344.28 673.59 344.28 673.26 345.96"/>
    <polygon class="cls-2" points="671.4 355.62 672.82 355.62 674.41 347.45 672.98 347.45 671.4 355.62"/>
    <path class="cls-2" d="M679.8,348.46c1.15,0,1.75.53,1.67,1.68h1.34c.21-1.76-1-2.88-2.88-2.88-2.42,0-4.07,1.78-4.56,4.24s.46,4.31,3,4.31a3.94,3.94,0,0,0,4-2.93h-1.39a2.66,2.66,0,0,1-2.5,1.74c-1.53,0-1.95-1.25-1.61-2.89S678.15,348.46,679.8,348.46Z"/>
    <path class="cls-2" d="M655.68,410.69c0,1.46,1.18,1.91,3.18,2.37,1.22.29,2,.48,2,1.33S660,415.7,659,415.7c-1.22,0-2-.49-2.16-1.61h-1.38c.16,1.82,1.4,2.72,3.48,2.72,1.92,0,3.37-.82,3.37-2.52,0-1.53-1.15-2.06-3.31-2.54-1.07-.24-1.87-.43-1.87-1.25s.73-1.14,1.69-1.14,1.88.41,2,1.4h1.35c-.05-1.59-1.39-2.5-3.25-2.5S655.68,409.06,655.68,410.69Z"/>
    <path class="cls-2" d="M663.71,412.6c0,2.48,1.39,4.21,3.75,4.21a3.35,3.35,0,0,0,3.61-2.66h-1.39a2,2,0,0,1-2.14,1.49c-1.56,0-2.29-1.15-2.36-2.79h6v-.43c0-2.48-1.2-4.16-3.64-4.16S663.71,410.07,663.71,412.6Zm3.81-3.17c1.47,0,2.16.85,2.24,2.34h-4.54A2.25,2.25,0,0,1,667.52,409.43Z"/>
    <path class="cls-2" d="M674.75,406.05h-1.39v2.47H672v1.13h1.37v4.74c0,1.54.39,2.37,1.89,2.37a4.25,4.25,0,0,0,1.22-.15v-1.1a3.49,3.49,0,0,1-.71.07c-.83,0-1-.42-1-1.3v-4.63h1.76v-1.13h-1.76Z"/>
    <rect class="cls-2" x="438.49" y="401.17" width="6.89" height="6.89"/>
  </g>
</svg>
