<svg id="Layer_1" data-name="Layer 1" xmlns="http://www.w3.org/2000/svg" viewBox="0 0 874.01 617.95">
  <defs>
    <style>
      .cls-1 {
        fill: #474849;
      }

      .cls-2 {
        fill: #fff;
      }
    </style>
  </defs>
  <title>DropperTypefaceAnimation</title>
  <rect class="cls-1" x="-0.31" y="-0.01" width="874" height="617.98"/>
  <g>
    <path class="cls-2" d="M232.92,247.62h11.65l7.55-38.79c3.2-16.64-1.28-28-17.92-28-9.86,0-17.15,3.58-23.43,13,.64-2.56,1.8-7.93,2.44-11L218.33,157h-11.4l-17.66,90.63h11.39l6.4-33.16c2.69-13.7,9.86-23.81,23.3-23.81,10.88,0,12.42,6.4,10.11,18.18Z"/>
    <path class="cls-2" d="M327.77,217.79a21.14,21.14,0,0,0,.51-2.94c4-20.1-3.46-34-23.3-34-19.46,0-33,13.95-36.86,33.66-4,20.48,4.73,34.69,24.19,34.69,15.49,0,27.14-7.3,32.51-21.25H313.56c-4,7.68-11,11.91-20.23,11.91-12.29,0-16.13-8.58-14.08-22Zm-23.43-27.52c11.39,0,15.49,6.27,13.83,18.82h-37C284,198.84,292.18,190.27,304.34,190.27Z"/>
    <path class="cls-2" d="M351.83,182.33c-.64,4-2.05,10.5-2.56,13.57l-10,51.72H350.8l6.4-33.16c2.44-12.41,11-22.4,24.71-22.4.25,0,1.28,0,2.69.13l1.4-11.27a28.44,28.44,0,0,0-3.2-.12c-9.08,0-17.79,5.88-22.4,14.72.64-3.2,1.92-9.6,2.56-13.19Z"/>
    <polygon class="cls-2" points="388.82 247.62 400.34 247.62 413.01 182.33 401.49 182.33 388.82 247.62"/>
    <polygon class="cls-2" points="406.23 156.99 403.54 170.56 415.31 170.56 418 156.99 406.23 156.99"/>
    <path class="cls-2" d="M448.85,182.84l3.84-19.71H441.42l-3.84,19.71H426.06l-1.79,9.09h11.39l-7.29,37.25c-2.43,12.67,0,19.59,12.41,19.59a38.44,38.44,0,0,0,9-.9l1.92-9.21a37.9,37.9,0,0,1-6.52.64c-6.4,0-6.79-2.82-5.38-10l7.3-37.38h14.2l1.8-9.09Z"/>
    <path class="cls-2" d="M521.81,247.62c.38-3.84,1.79-11.4,2.43-14.34l7.17-36.35,2.94-14.6h-11c-.64,2.56-1.53,6.91-2.17,11-2-8.32-8.19-12.54-18.56-12.54-17.8,0-31,15.23-34.56,33.79-3.59,19.2,3.58,34.56,21,34.56,9.73,0,18-3.58,23.68-12.54a101.12,101.12,0,0,0-1.92,11Zm-29.19-8.07c-11.77,0-15.74-10.24-13.05-23.42,2.94-14.72,11.13-25.61,24.32-25.61,12.8,0,15.87,9.35,13.18,23C514.13,228.54,506.32,239.55,492.62,239.55Z"/>
    <path class="cls-2" d="M564.68,265c-8.83,0-13.56-2.43-13.95-10.62H539.6c-1.28,12.8,8.83,20.1,24.57,20.1,20.48,0,32.39-11.52,36.74-34.31l8.45-43.26c.64-3.08,1.92-9.48,2.82-14.6H601.42c-.64,2.43-1.66,6.91-2.3,11-2.43-8.32-9-12.54-19.2-12.54-17.28,0-30.6,13.95-34.31,33-3.71,19.46,4,33.41,21.89,33.41,9.35,0,17.28-2.81,23.17-11.65l-.64,3.59C586.83,254.91,580.94,265,564.68,265Zm5.64-27c-11.4,0-16-9-13.32-21.76,2.82-14.08,11.27-25.73,24.84-25.73,12.29,0,16,8.58,13.31,22.66S584.14,238,570.32,238Z"/>
    <path class="cls-2" d="M659.79,180.8c-19.46,0-33,13.95-36.87,33.66-4,20.48,4.74,34.69,24.2,34.69,15.48,0,27.13-7.3,32.51-21.25H668.36c-4,7.68-11,11.91-20.22,11.91-12.29,0-16.13-8.58-14.08-22h48.51a19.74,19.74,0,0,0,.52-2.94C687.05,194.75,679.63,180.8,659.79,180.8ZM673,209.09H636c2.82-10.25,11-18.82,23.17-18.82C670.54,190.27,674.64,196.54,673,209.09Z"/>
  </g>
  <g>
    <path class="cls-2" d="M638.36,389.19h-.85l-391.68.32-.31,44.68V435l390.74,1.25h3.37l-.09-3.37Zm-2,43.75L443,433.56l-.23-13.15,193.93.46Zm-195.44.63-194.55.62-.1-14.26,194.88.47Zm.77-43.69-.25,14.21-195.28.31-.1-14.68Zm-.27,15.26-.24,13.69-194.91.47-.1-14.47Zm195.33,13.22-194,.46-.24-13.68,194.61.32Zm.39-14.59-194.67.32-.25-14.21,195.29.16Z"/>
    <path class="cls-2" d="M202.1,411.75c-1.07-.24-1.85-.45-1.85-1.25s.69-1.14,1.68-1.14,1.84.4,1.94,1.4h1.34c-.05-1.59-1.36-2.5-3.22-2.5s-3.14.82-3.14,2.42,1.21,1.93,3.16,2.38c1.2.27,2,.47,2,1.35s-.85,1.31-1.89,1.31A1.86,1.86,0,0,1,200,414.1H198.6c.14,1.81,1.36,2.71,3.44,2.71,1.92,0,3.35-.84,3.35-2.52C205.39,412.77,204.27,412.23,202.1,411.75Z"/>
    <rect class="cls-2" x="207.19" y="405.28" width="1.39" height="11.33"/>
    <rect class="cls-2" x="210.97" y="405.28" width="1.44" height="1.68"/>
    <rect class="cls-2" x="210.98" y="408.45" width="1.41" height="8.16"/>
    <path class="cls-2" d="M223.58,408.26a2.58,2.58,0,0,0-2.61,1.57,2.22,2.22,0,0,0-2.32-1.57,2.56,2.56,0,0,0-2.48,1.57c0-.45,0-1,0-1.38h-1.37c0,.58,0,1.38,0,1.76v6.41h1.39v-4.34c0-1.6.56-2.8,2-2.8,1.2,0,1.59.73,1.59,2.14v5h1.4v-4.55c0-1.52.6-2.59,2-2.59,1.09,0,1.62.72,1.62,2v5.13h1.4v-5.09C226.2,409.59,225.47,408.26,223.58,408.26Z"/>
    <path class="cls-2" d="M431.73,467.16a2.42,2.42,0,0,0-2.43,1.36c0-.38,0-.78,0-1.16v-3.08h-2.19v9.48c0,.32,0,1.09,0,1.86h2.16c0-.29,0-.71,0-1.09a2.39,2.39,0,0,0,2.34,1.28c2.35,0,3.46-2,3.46-4.47C435.08,469,434,467.16,431.73,467.16Zm-.67,6.87c-1.33,0-1.81-1.06-1.81-2.53S429.68,469,431,469s1.78,1,1.78,2.44S432.34,474,431.06,474Z"/>
    <path class="cls-2" d="M440.45,467.16c-2.59,0-4.13,1.72-4.13,4.29s1.39,4.36,4.1,4.36,4.1-1.7,4.1-4.37S443.08,467.16,440.45,467.16Zm0,6.89c-1.35,0-1.88-1.11-1.88-2.61s.51-2.5,1.86-2.5,1.84,1,1.84,2.51S441.76,474.05,440.44,474.05Z"/>
    <rect class="cls-2" x="446.1" y="464.28" width="2.21" height="11.33"/>
    <path class="cls-2" d="M457.84,464.28h-2.2v3.08c0,.38,0,.65,0,1a2.22,2.22,0,0,0-2.24-1.24c-2.3,0-3.52,1.83-3.52,4.41,0,2.33,1.07,4.24,3.33,4.24a2.49,2.49,0,0,0,2.48-1.39c0,.38,0,.91,0,1.2h2.14c0-.77,0-1.67,0-1.86ZM453.91,474c-1.3,0-1.78-1.1-1.78-2.54s.46-2.46,1.81-2.46,1.76,1,1.76,2.49S455.25,474,453.91,474Z"/>
    <path class="cls-2" d="M419.35,355.62v-4.21c0-1.56.79-2.74,2.44-2.74h.38v-1.4a2.56,2.56,0,0,0-.37,0,2.66,2.66,0,0,0-2.49,1.84c0-.45,0-1.26,0-1.65h-1.38c0,.58,0,1.38,0,1.76v6.41Z"/>
    <path class="cls-2" d="M430.46,351.42c0-2.48-1.2-4.16-3.63-4.16S423,349.07,423,351.6s1.39,4.21,3.74,4.21a3.36,3.36,0,0,0,3.62-2.66H429a2,2,0,0,1-2.15,1.49c-1.55,0-2.29-1.15-2.35-2.79h6Zm-6-.65a2.26,2.26,0,0,1,2.31-2.34c1.47,0,2.16.85,2.24,2.34Z"/>
    <path class="cls-2" d="M435.55,357.81c-1.12,0-1.83-.37-2.07-1.33h-1.41c.18,1.65,1.54,2.5,3.44,2.5,2.6,0,3.85-1.51,3.85-4.34v-5.43c0-.38,0-1.18,0-1.76H438c0,.39,0,.91,0,1.38a2.53,2.53,0,0,0-2.6-1.57c-2.19,0-3.52,1.81-3.52,4.27s1.23,4,3.43,4a2.6,2.6,0,0,0,2.65-1.51v.58C438,356.59,437.5,357.81,435.55,357.81Zm.06-3.39c-1.47,0-2.26-1.17-2.26-2.85s.71-3.11,2.36-3.11,2.29,1.17,2.29,3S437.29,354.42,435.61,354.42Z"/>
    <path class="cls-2" d="M441.77,347.45v5.09c0,2,.83,3.27,2.77,3.27a2.55,2.55,0,0,0,2.61-1.65c0,.45,0,1.07,0,1.46h1.36c0-.58,0-1.48,0-1.86v-6.31h-1.43v4c0,1.84-.49,3.1-2.17,3.1-1.24,0-1.72-.82-1.72-2.19v-4.95Z"/>
    <rect class="cls-2" x="450.97" y="344.28" width="1.41" height="11.33"/>
    <path class="cls-2" d="M458.41,350.73c-2.74,0-4.13.8-4.13,2.69a2.45,2.45,0,0,0,2.74,2.39,3,3,0,0,0,2.9-1.57,6.71,6.71,0,0,0,.16,1.38h1.34c0-.24-.16-1.35-.16-1.73V350c0-1.91-1.14-2.77-3.28-2.77-1.84,0-3.19.77-3.27,2.56h1.36c.13-1,.8-1.44,1.88-1.44s1.92.4,1.92,1.52v.85C459.53,350.73,458.54,350.73,458.41,350.73Zm1.47,1.08V352a2.41,2.41,0,0,1-2.49,2.71c-.9,0-1.67-.42-1.67-1.35,0-1.26,1.17-1.57,2.9-1.57C459,351.77,459.44,351.79,459.88,351.81Z"/>
    <path class="cls-2" d="M465.1,355.62v-4.21c0-1.56.78-2.74,2.43-2.74h.38v-1.4a2.49,2.49,0,0,0-.36,0,2.67,2.67,0,0,0-2.5,1.84c0-.45,0-1.26,0-1.65h-1.37c0,.58,0,1.38,0,1.76v6.41Z"/>
    <path class="cls-2" d="M191.94,349.1c0-.45,0-1.26,0-1.65h-1.38c0,.58,0,1.38,0,1.76v6.41H192v-4.21c0-1.56.79-2.74,2.43-2.74h.39v-1.4a2.56,2.56,0,0,0-.37,0A2.68,2.68,0,0,0,191.94,349.1Z"/>
    <path class="cls-2" d="M203.35,351.44c0-2.47-1.37-4.18-3.82-4.18s-3.91,1.81-3.91,4.32,1.33,4.23,3.81,4.23S203.35,354.05,203.35,351.44Zm-6.27.13c0-1.72.7-3.13,2.4-3.13s2.43,1.28,2.43,3-.68,3.15-2.41,3.15S197.08,353.31,197.08,351.57Z"/>
    <path class="cls-2" d="M215.32,350.49v5.13h1.43v-5.09c0-1.94-.74-3.27-2.64-3.27a2.6,2.6,0,0,0-2.63,1.57,2.22,2.22,0,0,0-2.34-1.57,2.58,2.58,0,0,0-2.49,1.57c0-.45,0-1,0-1.38h-1.39c0,.58,0,1.38,0,1.76v6.41h1.4v-4.34c0-1.6.58-2.8,2-2.8,1.2,0,1.58.73,1.58,2.14v5h1.43v-4.55c0-1.52.59-2.59,2-2.59C214.8,348.48,215.32,349.2,215.32,350.49Z"/>
    <path class="cls-2" d="M222.73,350.73c-2.74,0-4.13.8-4.13,2.69a2.45,2.45,0,0,0,2.74,2.39,3,3,0,0,0,2.89-1.57,7.49,7.49,0,0,0,.16,1.38h1.35c0-.24-.16-1.35-.16-1.73V350c0-1.91-1.14-2.77-3.28-2.77-1.84,0-3.19.77-3.27,2.56h1.36c.13-1,.8-1.44,1.87-1.44s1.93.4,1.93,1.52v.85C223.85,350.73,222.86,350.73,222.73,350.73Zm1.47,1.08V352a2.41,2.41,0,0,1-2.5,2.71c-.89,0-1.66-.42-1.66-1.35,0-1.26,1.17-1.57,2.9-1.57C223.32,351.77,223.75,351.79,224.2,351.81Z"/>
    <path class="cls-2" d="M232.06,347.26a2.7,2.7,0,0,0-2.69,1.58c0-.44,0-1,0-1.39H228c0,.58,0,1.38,0,1.76v6.41h1.41v-4.23c0-1.78.62-2.91,2.24-2.91,1.28,0,1.76.8,1.76,2.27v4.87h1.44v-5C234.84,348.6,234.11,347.26,232.06,347.26Z"/>
    <polygon class="cls-2" points="649.19 355.62 650.62 355.62 652.2 347.45 650.78 347.45 649.19 355.62"/>
    <polygon class="cls-2" points="651.05 345.96 652.5 345.96 652.84 344.28 651.38 344.28 651.05 345.96"/>
    <path class="cls-2" d="M656.6,355.65l.24-1.15a5.56,5.56,0,0,1-.82.08c-.78,0-.83-.36-.65-1.24l.91-4.69H658l.22-1.13H656.5l.49-2.47h-1.4l-.48,2.47H653.7l-.22,1.13h1.39l-.91,4.68c-.29,1.53,0,2.43,1.52,2.43A4.94,4.94,0,0,0,656.6,355.65Z"/>
    <path class="cls-2" d="M663.74,355.62h1.36c0-.48.22-1.43.3-1.8l.9-4.54.37-1.83h-1.38c-.08.32-.19.87-.27,1.38a2,2,0,0,0-2.29-1.57c-2.24,0-3.84,1.91-4.29,4.24s.43,4.31,2.61,4.31a3.27,3.27,0,0,0,2.93-1.57A14,14,0,0,0,663.74,355.62Zm-2.26-1c-1.47,0-1.94-1.28-1.6-2.95s1.38-3.2,3-3.2,2,1.15,1.61,2.9S663.18,354.61,661.48,354.61Z"/>
    <polygon class="cls-2" points="671.14 344.28 669.74 344.28 667.53 355.62 668.94 355.62 671.14 344.28"/>
    <polygon class="cls-2" points="671.4 355.62 672.82 355.62 674.41 347.45 672.98 347.45 671.4 355.62"/>
    <polygon class="cls-2" points="675.05 344.28 673.59 344.28 673.26 345.96 674.71 345.96 675.05 344.28"/>
    <path class="cls-2" d="M679.93,347.26c-2.42,0-4.07,1.78-4.56,4.24s.46,4.31,3,4.31a3.94,3.94,0,0,0,4-2.93h-1.39a2.66,2.66,0,0,1-2.5,1.74c-1.53,0-1.95-1.25-1.61-2.89s1.34-3.27,3-3.27c1.15,0,1.75.53,1.67,1.68h1.34C683,348.38,681.83,347.26,679.93,347.26Z"/>
    <path class="cls-2" d="M659,411.75c-1.07-.24-1.87-.43-1.87-1.25s.73-1.14,1.7-1.14,1.87.4,2,1.4h1.35c-.05-1.59-1.39-2.5-3.25-2.5s-3.17.8-3.17,2.43c0,1.46,1.18,1.91,3.18,2.37,1.22.29,2,.48,2,1.33S660,415.7,659,415.7c-1.22,0-2-.49-2.16-1.61h-1.38c.16,1.82,1.4,2.72,3.48,2.72,1.92,0,3.37-.82,3.37-2.52C662.27,412.76,661.12,412.23,659,411.75Z"/>
    <path class="cls-2" d="M667.55,408.26c-2.45,0-3.84,1.81-3.84,4.34s1.39,4.21,3.75,4.21a3.35,3.35,0,0,0,3.61-2.66h-1.39a2,2,0,0,1-2.14,1.49c-1.56,0-2.29-1.15-2.36-2.79h6v-.43C671.19,409.94,670,408.26,667.55,408.26Zm-2.33,3.51a2.25,2.25,0,0,1,2.3-2.34c1.47,0,2.16.85,2.24,2.34Z"/>
    <path class="cls-2" d="M674.75,406.05h-1.39v2.47H672v1.13h1.37v4.74c0,1.54.39,2.37,1.89,2.37a4.62,4.62,0,0,0,1.22-.14v-1.11a3.49,3.49,0,0,1-.71.07c-.83,0-1-.42-1-1.3v-4.63h1.76v-1.13h-1.76Z"/>
    <rect class="cls-2" x="634.49" y="386.17" width="6.89" height="6.89"/>
  </g>
</svg>
