<svg id="Layer_1" data-name="Layer 1" xmlns="http://www.w3.org/2000/svg" viewBox="0 0 874.01 617.95">
  <defs>
    <style>
      .cls-1 {
        fill: #474849;
      }

      .cls-2 {
        fill: #fff;
      }
    </style>
  </defs>
  <title>DropperTypefaceAnimation</title>
  <rect class="cls-1" x="-0.31" y="-0.01" width="874" height="617.98"/>
  <g>
    <path class="cls-2" d="M236,247.62H247.5l7.55-38.92c3.2-16.51-1.15-27.9-17.66-27.9-10,0-16.9,3.32-23.17,12.8.64-2.56,1.66-7.68,2.3-10.76L221.64,157H210.38l-17.67,90.63H204l6.52-33.54c2.69-13.7,9.73-23.56,23.05-23.56,10.62,0,12.28,6.41,10,18.18Z"/>
    <path class="cls-2" d="M329.67,217.79a19.74,19.74,0,0,0,.52-2.94c4-20.1-3.2-34-23-34-19.21,0-32.77,13.95-36.61,33.66-4,20.35,4.73,34.69,23.93,34.69,15.11,0,26.88-7.3,32.26-21.25H315.59c-4.09,7.68-11,11.91-20.09,11.91-12.16,0-15.88-8.58-13.83-22ZM306.5,190.14c11.4,0,15.24,6.53,13.7,19H283.59C286.41,199,294.6,190.14,306.5,190.14Z"/>
    <path class="cls-2" d="M353.22,182.33c-.64,4-2,10.5-2.56,13.57l-10,51.72h11.39l6.4-33.16c2.43-12.41,11-22.4,24.58-22.4.25,0,1.28,0,2.69.13l1.41-11.27a27.57,27.57,0,0,0-3.21-.12c-9,0-17.66,5.88-22.27,14.72.64-3.2,1.92-9.6,2.56-13.19Z"/>
    <polygon class="cls-2" points="402.12 182.33 389.44 247.62 400.84 247.62 413.51 182.33 402.12 182.33"/>
    <polygon class="cls-2" points="406.98 156.99 404.29 170.43 415.94 170.43 418.63 156.99 406.98 156.99"/>
    <path class="cls-2" d="M448.58,182.84l3.84-19.71H441.29l-3.85,19.71H426.18l-1.79,9.09h11.13l-7.29,37.38c-2.31,12.29-.26,19.46,12.16,19.46a36.63,36.63,0,0,0,9-.9l1.92-9.21a38,38,0,0,1-6.53.64c-6.27,0-6.65-2.82-5.25-9.86l7.3-37.51h13.95l1.79-9.09Z"/>
    <path class="cls-2" d="M520.39,247.62c.38-3.84,1.79-11.4,2.43-14.34L530,196.93l3-14.6h-11c-.64,2.56-1.54,6.91-2.18,11-1.92-8.32-8.06-12.54-18.3-12.54-17.93,0-30.72,15.23-34.31,33.92-3.58,19.07,3.46,34.43,20.87,34.43,9.47,0,17.79-3.58,23.42-12.54a109.3,109.3,0,0,0-1.92,11Zm-28.93-8.07c-11.77,0-15.49-10.24-12.8-23.55,2.69-14.47,11-25.6,24.19-25.6,12.93,0,15.62,9.21,12.93,23.17C512.84,228.54,505,239.55,491.46,239.55Z"/>
    <path class="cls-2" d="M562.63,265.15c-8.58,0-13.44-2.43-13.83-10.62h-11c-1.28,12.67,8.7,20,24.32,20,20.35,0,32-11.52,36.35-34.18l8.45-43.39c.64-3.08,1.92-9.48,2.81-14.6H599.11c-.64,2.43-1.66,6.79-2.3,11-2.44-8.32-8.58-12.54-19.08-12.54-17.28,0-30.33,13.95-34.05,33.15-3.71,19.46,3.72,33.28,21.76,33.28,9.48,0,16.9-2.81,22.92-11.65l-.77,3.72C584.52,254.91,578.63,265.15,562.63,265.15Zm5.5-27.14c-11.39,0-15.74-8.83-13-21.88,2.68-14,10.88-25.73,24.57-25.73,12.68,0,15.75,8.83,13.19,22.78C590,227.39,582.09,238,568.13,238Z"/>
    <path class="cls-2" d="M656.58,180.8c-19.2,0-32.77,13.95-36.61,33.66-4,20.35,4.74,34.69,23.94,34.69,15.1,0,26.88-7.3,32.26-21.25H665c-4.1,7.68-11,11.91-20.1,11.91-12.16,0-15.87-8.58-13.82-22h48a19.76,19.76,0,0,0,.51-2.94C683.59,194.75,676.42,180.8,656.58,180.8Zm13.06,28.29H633c2.81-10.12,11-19,22.91-19C667.33,190.14,671.17,196.67,669.64,209.09Z"/>
  </g>
  <g>
    <path class="cls-2" d="M638.36,389.19h-.85l-391.68.32-.31,44.68V435l390.74,1.25h3.37l-.09-3.37Zm-2,43.75L443,433.56l-.23-13.15,193.93.46Zm-195.44.63-194.55.62-.1-14.26,194.88.47Zm.77-43.69-.25,14.21-195.28.31-.1-14.68Zm-.27,15.26-.24,13.69-194.91.47-.1-14.47Zm195.33,13.22-194,.46-.24-13.68,194.61.32Zm.39-14.59-194.67.32-.25-14.21,195.29.16Z"/>
    <path class="cls-2" d="M202.1,411.75c-1.07-.24-1.85-.45-1.85-1.25s.69-1.14,1.68-1.14,1.84.4,1.94,1.4h1.34c-.05-1.59-1.36-2.5-3.22-2.5s-3.13.82-3.13,2.42,1.2,1.93,3.15,2.38c1.2.27,2,.47,2,1.35s-.85,1.31-1.89,1.31A1.86,1.86,0,0,1,200,414.1H198.6c.14,1.81,1.36,2.71,3.44,2.71,1.92,0,3.35-.84,3.35-2.52C205.39,412.77,204.27,412.23,202.1,411.75Z"/>
    <rect class="cls-2" x="207.19" y="405.28" width="1.39" height="11.33"/>
    <rect class="cls-2" x="210.97" y="405.28" width="1.44" height="1.68"/>
    <rect class="cls-2" x="210.98" y="408.45" width="1.41" height="8.16"/>
    <path class="cls-2" d="M223.58,408.26a2.58,2.58,0,0,0-2.61,1.57,2.22,2.22,0,0,0-2.32-1.57,2.56,2.56,0,0,0-2.48,1.57c0-.45,0-1,0-1.38h-1.37c0,.58,0,1.38,0,1.76v6.41h1.39v-4.34c0-1.6.56-2.8,2-2.8,1.2,0,1.59.73,1.59,2.14v5h1.4v-4.55c0-1.52.6-2.59,2-2.59,1.09,0,1.62.72,1.62,2v5.13h1.4v-5.09C226.2,409.59,225.47,408.26,223.58,408.26Z"/>
    <path class="cls-2" d="M431.73,467.16a2.43,2.43,0,0,0-2.43,1.36c0-.38,0-.78,0-1.16v-3.08h-2.19v9.48c0,.32,0,1.09,0,1.86h2.16c0-.29,0-.71,0-1.09a2.39,2.39,0,0,0,2.34,1.28c2.35,0,3.46-2,3.46-4.47C435.08,469,434,467.16,431.73,467.16Zm-.67,6.87c-1.33,0-1.81-1.06-1.81-2.53S429.68,469,431,469s1.78,1,1.78,2.44S432.34,474,431.06,474Z"/>
    <path class="cls-2" d="M440.45,467.16c-2.59,0-4.13,1.72-4.13,4.29s1.39,4.36,4.1,4.36,4.1-1.7,4.1-4.37S443.08,467.16,440.45,467.16Zm0,6.89c-1.35,0-1.88-1.11-1.88-2.61s.51-2.5,1.86-2.5,1.84,1,1.84,2.51S441.76,474.05,440.44,474.05Z"/>
    <rect class="cls-2" x="446.1" y="464.28" width="2.21" height="11.33"/>
    <path class="cls-2" d="M457.84,464.28h-2.2v3.08c0,.38,0,.65,0,1a2.22,2.22,0,0,0-2.24-1.24c-2.3,0-3.52,1.83-3.52,4.41,0,2.33,1.07,4.24,3.33,4.24a2.49,2.49,0,0,0,2.48-1.39c0,.38,0,.91,0,1.2h2.14c0-.77,0-1.67,0-1.86ZM453.91,474c-1.3,0-1.78-1.1-1.78-2.54s.46-2.46,1.81-2.46,1.76,1,1.76,2.49S455.25,474,453.91,474Z"/>
    <path class="cls-2" d="M419.35,355.62v-4.21c0-1.56.79-2.74,2.44-2.74h.38v-1.4a2.56,2.56,0,0,0-.37,0,2.66,2.66,0,0,0-2.49,1.84c0-.45,0-1.26,0-1.65h-1.38c0,.58,0,1.38,0,1.76v6.41Z"/>
    <path class="cls-2" d="M430.46,351.42c0-2.48-1.2-4.16-3.63-4.16S423,349.07,423,351.6s1.39,4.21,3.74,4.21a3.36,3.36,0,0,0,3.62-2.66H429a2,2,0,0,1-2.15,1.49c-1.55,0-2.29-1.15-2.35-2.79h6Zm-6-.65a2.26,2.26,0,0,1,2.31-2.34c1.47,0,2.16.85,2.24,2.34Z"/>
    <path class="cls-2" d="M435.55,357.81c-1.12,0-1.83-.37-2.07-1.33h-1.41c.18,1.65,1.54,2.5,3.44,2.5,2.6,0,3.85-1.51,3.85-4.34v-5.43c0-.38,0-1.18,0-1.76H438c0,.39,0,.91,0,1.38a2.53,2.53,0,0,0-2.6-1.57c-2.19,0-3.52,1.81-3.52,4.27s1.23,4,3.43,4a2.6,2.6,0,0,0,2.65-1.51v.58C438,356.59,437.5,357.81,435.55,357.81Zm.06-3.39c-1.47,0-2.26-1.17-2.26-2.85s.71-3.11,2.36-3.11,2.29,1.17,2.29,3S437.29,354.42,435.61,354.42Z"/>
    <path class="cls-2" d="M441.77,347.45v5.09c0,2,.83,3.27,2.77,3.27a2.55,2.55,0,0,0,2.61-1.65c0,.45,0,1.07,0,1.46h1.36c0-.58,0-1.48,0-1.86v-6.31h-1.43v4c0,1.84-.49,3.1-2.17,3.1-1.24,0-1.72-.82-1.72-2.19v-4.95Z"/>
    <rect class="cls-2" x="450.97" y="344.28" width="1.41" height="11.33"/>
    <path class="cls-2" d="M458.41,350.73c-2.74,0-4.13.8-4.13,2.69a2.45,2.45,0,0,0,2.74,2.39,3,3,0,0,0,2.9-1.57,6.71,6.71,0,0,0,.16,1.38h1.34c0-.24-.16-1.35-.16-1.73V350c0-1.91-1.14-2.77-3.28-2.77-1.84,0-3.19.77-3.27,2.56h1.36c.13-1,.8-1.44,1.88-1.44s1.92.4,1.92,1.52v.85C459.53,350.73,458.54,350.73,458.41,350.73Zm1.47,1.08V352a2.41,2.41,0,0,1-2.49,2.71c-.9,0-1.67-.42-1.67-1.35,0-1.26,1.17-1.57,2.9-1.57C459,351.77,459.44,351.79,459.88,351.81Z"/>
    <path class="cls-2" d="M465.1,355.62v-4.21c0-1.56.78-2.74,2.43-2.74h.38v-1.4a2.49,2.49,0,0,0-.36,0,2.67,2.67,0,0,0-2.5,1.84c0-.45,0-1.26,0-1.65h-1.37c0,.58,0,1.38,0,1.76v6.41Z"/>
    <path class="cls-2" d="M191.94,349.1c0-.45,0-1.26,0-1.65h-1.38c0,.58,0,1.38,0,1.76v6.41H192v-4.21c0-1.56.79-2.74,2.44-2.74h.38v-1.4a2.56,2.56,0,0,0-.37,0A2.68,2.68,0,0,0,191.94,349.1Z"/>
    <path class="cls-2" d="M203.35,351.44c0-2.47-1.37-4.18-3.82-4.18s-3.91,1.81-3.91,4.32,1.33,4.23,3.81,4.23S203.35,354.05,203.35,351.44Zm-6.27.13c0-1.72.7-3.13,2.4-3.13s2.43,1.28,2.43,3-.68,3.15-2.41,3.15S197.08,353.31,197.08,351.57Z"/>
    <path class="cls-2" d="M215.32,350.49v5.13h1.43v-5.09c0-1.94-.74-3.27-2.64-3.27a2.6,2.6,0,0,0-2.63,1.57,2.22,2.22,0,0,0-2.33-1.57,2.58,2.58,0,0,0-2.5,1.57c0-.45,0-1,0-1.38h-1.39c0,.58,0,1.38,0,1.76v6.41h1.4v-4.34c0-1.6.58-2.8,2-2.8,1.2,0,1.58.73,1.58,2.14v5h1.43v-4.55c0-1.52.59-2.59,2-2.59C214.8,348.48,215.32,349.2,215.32,350.49Z"/>
    <path class="cls-2" d="M222.73,350.73c-2.74,0-4.13.8-4.13,2.69a2.45,2.45,0,0,0,2.74,2.39,3,3,0,0,0,2.89-1.57,7.49,7.49,0,0,0,.16,1.38h1.35c0-.24-.16-1.35-.16-1.73V350c0-1.91-1.14-2.77-3.28-2.77-1.84,0-3.19.77-3.27,2.56h1.36c.13-1,.8-1.44,1.87-1.44s1.93.4,1.93,1.52v.85C223.85,350.73,222.86,350.73,222.73,350.73Zm1.47,1.08V352a2.41,2.41,0,0,1-2.5,2.71c-.89,0-1.66-.42-1.66-1.35,0-1.26,1.17-1.57,2.9-1.57C223.32,351.77,223.75,351.79,224.2,351.81Z"/>
    <path class="cls-2" d="M232.06,347.26a2.7,2.7,0,0,0-2.69,1.58c0-.44,0-1,0-1.39H228c0,.58,0,1.38,0,1.76v6.41h1.41v-4.23c0-1.78.62-2.91,2.24-2.91,1.28,0,1.76.8,1.76,2.27v4.87h1.44v-5C234.84,348.6,234.11,347.26,232.06,347.26Z"/>
    <polygon class="cls-2" points="649.19 355.62 650.62 355.62 652.2 347.45 650.78 347.45 649.19 355.62"/>
    <polygon class="cls-2" points="651.05 345.96 652.51 345.96 652.84 344.28 651.38 344.28 651.05 345.96"/>
    <path class="cls-2" d="M656.6,355.65l.24-1.15a5.56,5.56,0,0,1-.81.08c-.79,0-.84-.36-.66-1.24l.91-4.69H658l.22-1.13H656.5l.49-2.47h-1.4l-.48,2.47H653.7l-.22,1.13h1.39l-.91,4.68c-.29,1.53,0,2.43,1.52,2.43A4.94,4.94,0,0,0,656.6,355.65Z"/>
    <path class="cls-2" d="M663.74,355.62h1.36c0-.48.22-1.43.3-1.8l.9-4.54.37-1.83h-1.38c-.08.32-.19.87-.27,1.38a2,2,0,0,0-2.29-1.57c-2.24,0-3.84,1.91-4.29,4.24s.43,4.31,2.61,4.31a3.27,3.27,0,0,0,2.93-1.57A14,14,0,0,0,663.74,355.62Zm-2.26-1c-1.47,0-1.94-1.28-1.6-2.95s1.38-3.2,3-3.2,2,1.15,1.61,2.9S663.18,354.61,661.48,354.61Z"/>
    <polygon class="cls-2" points="671.14 344.28 669.74 344.28 667.53 355.62 668.94 355.62 671.14 344.28"/>
    <polygon class="cls-2" points="671.4 355.62 672.82 355.62 674.41 347.45 672.98 347.45 671.4 355.62"/>
    <polygon class="cls-2" points="675.05 344.28 673.59 344.28 673.26 345.96 674.71 345.96 675.05 344.28"/>
    <path class="cls-2" d="M679.93,347.26c-2.42,0-4.07,1.78-4.56,4.24s.46,4.31,3,4.31a3.94,3.94,0,0,0,4-2.93h-1.39a2.66,2.66,0,0,1-2.5,1.74c-1.53,0-1.95-1.25-1.61-2.89s1.34-3.27,3-3.27c1.15,0,1.75.53,1.67,1.68h1.34C683,348.38,681.83,347.26,679.93,347.26Z"/>
    <path class="cls-2" d="M659,411.75c-1.07-.24-1.87-.43-1.87-1.25s.73-1.14,1.69-1.14,1.88.4,2,1.4h1.35c-.05-1.59-1.39-2.5-3.25-2.5s-3.17.8-3.17,2.43c0,1.46,1.18,1.91,3.18,2.37,1.22.29,2,.48,2,1.33S660,415.7,659,415.7c-1.22,0-2-.49-2.16-1.61h-1.38c.16,1.82,1.4,2.72,3.48,2.72,1.92,0,3.37-.82,3.37-2.52C662.27,412.76,661.12,412.23,659,411.75Z"/>
    <path class="cls-2" d="M667.55,408.26c-2.45,0-3.84,1.81-3.84,4.34s1.39,4.21,3.75,4.21a3.35,3.35,0,0,0,3.61-2.66h-1.39a2,2,0,0,1-2.14,1.49c-1.56,0-2.29-1.15-2.36-2.79h6v-.43C671.19,409.94,670,408.26,667.55,408.26Zm-2.33,3.51a2.25,2.25,0,0,1,2.3-2.34c1.47,0,2.16.85,2.24,2.34Z"/>
    <path class="cls-2" d="M674.75,406.05h-1.39v2.47H672v1.13h1.37v4.74c0,1.54.39,2.37,1.89,2.37a4.62,4.62,0,0,0,1.22-.14v-1.11a3.49,3.49,0,0,1-.71.07c-.83,0-1-.42-1-1.3v-4.63h1.76v-1.13h-1.76Z"/>
    <rect class="cls-2" x="438.49" y="386.17" width="6.89" height="6.89"/>
  </g>
</svg>
