<svg id="Layer_1" data-name="Layer 1" xmlns="http://www.w3.org/2000/svg" viewBox="0 0 874.01 617.95">
  <defs>
    <style>
      .cls-1 {
        fill: #474849;
      }

      .cls-2 {
        fill: #fff;
      }
    </style>
  </defs>
  <title>DropperTypefaceAnimation</title>
  <rect class="cls-1" x="-0.31" y="-0.01" width="874" height="617.98"/>
  <g>
    <path class="cls-2" d="M208,212.67c0-11.65,3.85-19.46,14.47-19.46,9.09,0,12,5.89,12,15.75v38.66h15.62v-39.3c0-16.9-5.51-28-22.4-28-9.35,0-15.75,3.59-19.84,11.65.12-3.07.12-7,.12-10.11V157H192.54v90.63H208Z"/>
    <path class="cls-2" d="M326.94,214.21c0-20.74-10.24-33.93-30.34-33.93-19.46,0-31.62,13.83-31.62,34.82s11.4,34.05,31.49,34.05c15.75,0,26.76-7.55,29.57-21.25h-15.1c-2.31,6.15-6.53,9.09-14,9.09-10,0-15.74-7.3-16.25-18.3h46.08C326.94,217.15,326.94,215.36,326.94,214.21Zm-46-6c.77-9.09,5.76-15.62,15.62-15.62s14.34,5.51,14.85,15.62Z"/>
    <path class="cls-2" d="M357.14,247.62V215.36c0-12.93,5.76-19.72,18.43-19.72.64,0,1.67,0,3.08.13V180.28c-1.28,0-2.95.13-4,.13-8.58.51-14.47,5.25-18.05,13.57,0-3.2,0-9.6-.13-12.16h-15c.12,5.63.12,12.55.12,14.59v51.21Z"/>
    <rect class="cls-2" x="392.09" y="156.99" width="16" height="14.85"/>
    <rect class="cls-2" x="392.21" y="181.82" width="15.74" height="65.79"/>
    <path class="cls-2" d="M420,194.37h10.37v35.32c0,12.81,4.73,18.95,17.28,18.95,3.2,0,7.93-.26,10.49-1V236.1a30,30,0,0,1-4.73.25c-6.28,0-7.56-2.3-7.56-8.7V194.37H458.9V182.46H445.84v-19.2H430.48v19.2H420Z"/>
    <path class="cls-2" d="M502.55,207.68c-20,0-33.54,5.12-33.54,22,0,12.16,8.45,19.46,21.63,19.46,9.22,0,17.16-3.2,21.51-11.26a73,73,0,0,0,.89,9.73h14.6c-.64-4.74-1-11.78-1-13.83V204c0-16.39-9.09-23.69-27.26-23.69-15.75,0-26.76,6.53-27.4,21.38h14.72c.9-6.78,5.13-9.47,12.42-9.47,6.91,0,12.16,2.43,12.16,9.73v5.89C508.69,207.68,504.34,207.68,502.55,207.68Zm9,10.49v1.28c0,6.66-2.69,18.18-16.52,18.18-5.88,0-10.62-2.69-10.62-9,0-9,8.7-10.62,20.87-10.62C506.9,218.05,509,218.05,511.51,218.17Z"/>
    <path class="cls-2" d="M588.56,191.55c-3.45-7.81-10.11-11.27-19.2-11.27-17.79,0-27.9,15.11-27.9,34.05,0,18.44,9.34,32.65,27.26,32.65,8.71,0,15.62-2.82,19.59-10.88v3.83c0,14-2.69,22.41-16,22.41-7.43,0-12.55-2.18-14-8.58l-15.49.13c1.28,13.95,12.8,20.48,28.93,20.48,22.15,0,31.75-11.39,31.75-34.18V196.41c0-2,0-9,.13-14.59h-15C588.56,184.38,588.56,188.22,588.56,191.55Zm-15.74,42.88c-10.24,0-15.36-8.7-15.36-20.1s4.48-21,15.74-21c11,0,15.36,7.81,15.36,20.48C588.56,226,584.21,234.43,572.82,234.43Z"/>
    <path class="cls-2" d="M650.51,180.28c-19.45,0-31.62,13.83-31.62,34.82s11.4,34.05,31.49,34.05c15.75,0,26.76-7.55,29.57-21.25h-15.1c-2.31,6.15-6.53,9.09-14,9.09-10,0-15.75-7.3-16.26-18.3h46.08c.13-1.54.13-3.33.13-4.48C680.85,193.47,670.61,180.28,650.51,180.28ZM634.9,208.19c.76-9.09,5.76-15.62,15.61-15.62s14.34,5.51,14.85,15.62Z"/>
  </g>
  <g>
    <path class="cls-2" d="M639.62,436.3l-.09-3.37-1.17-43.74h-.85l-391.68.31-.31,44.68V435l390.74,1.25ZM440.9,433.57l-194.55.62-.1-14.26,194.88.47Zm.77-43.69-.25,14.21-195.28.31-.1-14.68Zm195.82.16-.37,13.73-194.67.32-.25-14.21Zm-.41,15.42-.35,12.9-194,.46-.24-13.68Zm-195.68-.32-.24,13.69-194.91.47-.1-14.47Zm195.27,15.73-.33,12.07L443,433.56l-.23-13.15Z"/>
    <path class="cls-2" d="M202.09,415.72A1.86,1.86,0,0,1,200,414.1H198.6c.14,1.81,1.36,2.71,3.44,2.71,1.92,0,3.35-.84,3.35-2.52,0-1.52-1.12-2.06-3.29-2.54-1.07-.24-1.85-.45-1.85-1.25s.69-1.14,1.68-1.14,1.84.4,1.94,1.4h1.34c-.05-1.59-1.36-2.5-3.22-2.5s-3.13.82-3.13,2.42,1.2,1.93,3.15,2.38c1.2.27,2,.47,2,1.35S203.13,415.72,202.09,415.72Z"/>
    <rect class="cls-2" x="207.19" y="405.28" width="1.39" height="11.33"/>
    <rect class="cls-2" x="210.97" y="405.28" width="1.44" height="1.68"/>
    <rect class="cls-2" x="210.98" y="408.45" width="1.41" height="8.16"/>
    <path class="cls-2" d="M226.2,416.62v-5.09c0-1.94-.73-3.27-2.62-3.27a2.58,2.58,0,0,0-2.61,1.57,2.22,2.22,0,0,0-2.32-1.57,2.56,2.56,0,0,0-2.48,1.57c0-.45,0-1,0-1.38h-1.37c0,.58,0,1.38,0,1.76v6.41h1.39v-4.34c0-1.6.56-2.8,2-2.8,1.2,0,1.59.73,1.59,2.14v5h1.4v-4.55c0-1.52.6-2.59,2-2.59,1.09,0,1.62.72,1.62,2v5.13Z"/>
    <path class="cls-2" d="M429.31,464.28h-2.19v9.48c0,.32,0,1.09,0,1.86h2.16c0-.29,0-.71,0-1.09a2.39,2.39,0,0,0,2.34,1.28c2.35,0,3.46-2,3.46-4.47,0-2.3-1.09-4.18-3.35-4.18a2.43,2.43,0,0,0-2.43,1.36c0-.38,0-.78,0-1.16ZM431,469c1.24,0,1.78,1,1.78,2.44s-.48,2.58-1.76,2.58-1.81-1.06-1.81-2.53S429.68,469,431,469Z"/>
    <path class="cls-2" d="M444.52,471.44c0-2.53-1.44-4.28-4.07-4.28s-4.13,1.72-4.13,4.29,1.39,4.36,4.1,4.36S444.52,474.11,444.52,471.44Zm-6,0c0-1.39.51-2.5,1.86-2.5s1.84,1,1.84,2.51-.5,2.6-1.82,2.6S438.56,472.94,438.56,471.44Z"/>
    <rect class="cls-2" x="446.1" y="464.28" width="2.21" height="11.33"/>
    <path class="cls-2" d="M453.41,467.16c-2.3,0-3.52,1.83-3.52,4.41,0,2.33,1.07,4.24,3.33,4.24a2.49,2.49,0,0,0,2.48-1.39c0,.38,0,.91,0,1.2h2.14c0-.77,0-1.67,0-1.86v-9.48h-2.2v3.08c0,.38,0,.65,0,1A2.22,2.22,0,0,0,453.41,467.16Zm2.29,4.34c0,1.47-.45,2.51-1.79,2.51s-1.78-1.1-1.78-2.54.46-2.46,1.81-2.46S455.7,470,455.7,471.5Z"/>
    <path class="cls-2" d="M419.35,355.62v-4.21c0-1.56.79-2.74,2.44-2.74h.38v-1.4a2.56,2.56,0,0,0-.37,0,2.66,2.66,0,0,0-2.49,1.84c0-.45,0-1.26,0-1.65h-1.38c0,.58,0,1.38,0,1.76v6.41Z"/>
    <path class="cls-2" d="M423,351.6c0,2.48,1.39,4.21,3.74,4.21a3.36,3.36,0,0,0,3.62-2.66H429a2,2,0,0,1-2.15,1.49c-1.55,0-2.29-1.15-2.35-2.79h6v-.43c0-2.48-1.2-4.16-3.63-4.16S423,349.07,423,351.6Zm6.05-.83h-4.55a2.26,2.26,0,0,1,2.31-2.34C428.27,348.43,429,349.28,429,350.77Z"/>
    <path class="cls-2" d="M435.55,357.81c-1.12,0-1.83-.37-2.07-1.33h-1.41c.18,1.65,1.54,2.5,3.44,2.5,2.6,0,3.85-1.51,3.85-4.34v-5.43c0-.38,0-1.18,0-1.76H438c0,.39,0,.91,0,1.38a2.53,2.53,0,0,0-2.6-1.57c-2.19,0-3.52,1.81-3.52,4.27s1.23,4,3.43,4a2.6,2.6,0,0,0,2.65-1.51v.58C438,356.59,437.5,357.81,435.55,357.81Zm.06-3.39c-1.47,0-2.26-1.17-2.26-2.85s.71-3.11,2.36-3.11,2.29,1.17,2.29,3S437.29,354.42,435.61,354.42Z"/>
    <path class="cls-2" d="M441.77,347.45v5.09c0,2,.83,3.27,2.77,3.27a2.55,2.55,0,0,0,2.61-1.65c0,.45,0,1.07,0,1.46h1.36c0-.58,0-1.48,0-1.86v-6.31h-1.43v4c0,1.84-.49,3.1-2.17,3.1-1.24,0-1.72-.82-1.72-2.19v-4.95Z"/>
    <rect class="cls-2" x="450.97" y="344.28" width="1.41" height="11.33"/>
    <path class="cls-2" d="M458.41,350.73c-2.74,0-4.13.8-4.13,2.69a2.45,2.45,0,0,0,2.74,2.39,3,3,0,0,0,2.9-1.57,6.71,6.71,0,0,0,.16,1.38h1.34c0-.24-.16-1.35-.16-1.73V350c0-1.91-1.14-2.77-3.28-2.77-1.84,0-3.19.77-3.27,2.56h1.36c.13-1,.8-1.44,1.88-1.44s1.92.4,1.92,1.52v.85C459.53,350.73,458.54,350.73,458.41,350.73Zm1.47,1.08V352a2.41,2.41,0,0,1-2.49,2.71c-.9,0-1.67-.42-1.67-1.35,0-1.26,1.17-1.57,2.9-1.57C459,351.77,459.44,351.79,459.88,351.81Z"/>
    <path class="cls-2" d="M465.1,355.62v-4.21c0-1.56.78-2.74,2.43-2.74h.38v-1.4a2.49,2.49,0,0,0-.36,0,2.67,2.67,0,0,0-2.5,1.84c0-.45,0-1.26,0-1.65h-1.37c0,.58,0,1.38,0,1.76v6.41Z"/>
    <path class="cls-2" d="M190.57,355.62H192v-4.21c0-1.56.79-2.74,2.44-2.74h.38v-1.4a2.56,2.56,0,0,0-.37,0,2.68,2.68,0,0,0-2.5,1.84c0-.45,0-1.26,0-1.65h-1.38c0,.58,0,1.38,0,1.76Z"/>
    <path class="cls-2" d="M199.43,355.81c2.6,0,3.92-1.76,3.92-4.37s-1.37-4.18-3.82-4.18-3.91,1.81-3.91,4.32S197,355.81,199.43,355.81Zm0-7.37c1.67,0,2.43,1.28,2.43,3s-.68,3.15-2.41,3.15-2.42-1.31-2.42-3.05S197.78,348.44,199.48,348.44Z"/>
    <path class="cls-2" d="M213.71,348.48c1.09,0,1.61.72,1.61,2v5.13h1.43v-5.09c0-1.94-.74-3.27-2.64-3.27a2.6,2.6,0,0,0-2.63,1.57,2.22,2.22,0,0,0-2.33-1.57,2.58,2.58,0,0,0-2.5,1.57c0-.45,0-1,0-1.38h-1.39c0,.58,0,1.38,0,1.76v6.41h1.4v-4.34c0-1.6.58-2.8,2-2.8,1.2,0,1.58.73,1.58,2.14v5h1.43v-4.55C211.71,349.55,212.3,348.48,213.71,348.48Z"/>
    <path class="cls-2" d="M222.73,350.73c-2.74,0-4.13.8-4.13,2.69a2.45,2.45,0,0,0,2.74,2.39,3,3,0,0,0,2.89-1.57,7.49,7.49,0,0,0,.16,1.38h1.35c0-.24-.16-1.35-.16-1.73V350c0-1.91-1.14-2.77-3.28-2.77-1.84,0-3.19.77-3.27,2.56h1.36c.13-1,.8-1.44,1.87-1.44s1.93.4,1.93,1.52v.85C223.85,350.73,222.86,350.73,222.73,350.73Zm1.47,1.08V352a2.41,2.41,0,0,1-2.5,2.71c-.89,0-1.66-.42-1.66-1.35,0-1.26,1.17-1.57,2.9-1.57C223.32,351.77,223.75,351.79,224.2,351.81Z"/>
    <path class="cls-2" d="M234.84,355.62v-5c0-2-.73-3.38-2.78-3.38a2.69,2.69,0,0,0-2.69,1.59c0-.45,0-1,0-1.4H228c0,.58,0,1.38,0,1.76v6.41h1.41v-4.23c0-1.78.62-2.91,2.24-2.91,1.28,0,1.76.8,1.76,2.27v4.87Z"/>
    <polygon class="cls-2" points="649.19 355.62 650.62 355.62 652.2 347.45 650.78 347.45 649.19 355.62"/>
    <polygon class="cls-2" points="652.84 344.28 651.38 344.28 651.05 345.96 652.51 345.96 652.84 344.28"/>
    <path class="cls-2" d="M655.59,345.05l-.48,2.47H653.7l-.22,1.13h1.39l-.91,4.68c-.29,1.53,0,2.43,1.52,2.43a4.94,4.94,0,0,0,1.12-.11l.24-1.15a5.56,5.56,0,0,1-.81.08c-.79,0-.84-.36-.66-1.24l.91-4.69H658l.22-1.13H656.5l.49-2.47Z"/>
    <path class="cls-2" d="M665,348.83a2,2,0,0,0-2.29-1.57c-2.24,0-3.84,1.91-4.29,4.24s.43,4.31,2.61,4.31a3.27,3.27,0,0,0,2.93-1.57,14,14,0,0,0-.24,1.38h1.36c0-.48.22-1.43.3-1.8l.9-4.54.37-1.83h-1.38C665.21,347.77,665.1,348.32,665,348.83Zm-.5,2.53c-.37,1.87-1.34,3.25-3,3.25-1.47,0-1.94-1.28-1.6-2.95s1.38-3.2,3-3.2S664.86,349.61,664.52,351.36Z"/>
    <polygon class="cls-2" points="671.14 344.28 669.74 344.28 667.53 355.62 668.94 355.62 671.14 344.28"/>
    <polygon class="cls-2" points="673.26 345.96 674.71 345.96 675.05 344.28 673.59 344.28 673.26 345.96"/>
    <polygon class="cls-2" points="671.4 355.62 672.82 355.62 674.41 347.45 672.98 347.45 671.4 355.62"/>
    <path class="cls-2" d="M679.8,348.46c1.15,0,1.75.53,1.67,1.68h1.34c.21-1.76-1-2.88-2.88-2.88-2.42,0-4.07,1.78-4.56,4.24s.46,4.31,3,4.31a3.94,3.94,0,0,0,4-2.93h-1.39a2.66,2.66,0,0,1-2.5,1.74c-1.53,0-1.95-1.25-1.61-2.89S678.15,348.46,679.8,348.46Z"/>
    <path class="cls-2" d="M655.68,410.69c0,1.46,1.18,1.91,3.18,2.37,1.22.29,2,.48,2,1.33S660,415.7,659,415.7c-1.22,0-2-.49-2.16-1.61h-1.38c.16,1.82,1.4,2.72,3.48,2.72,1.92,0,3.37-.82,3.37-2.52,0-1.53-1.15-2.06-3.31-2.54-1.07-.24-1.87-.43-1.87-1.25s.73-1.14,1.69-1.14,1.88.4,2,1.4h1.35c-.05-1.59-1.39-2.5-3.25-2.5S655.68,409.06,655.68,410.69Z"/>
    <path class="cls-2" d="M663.71,412.6c0,2.48,1.39,4.21,3.75,4.21a3.35,3.35,0,0,0,3.61-2.66h-1.39a2,2,0,0,1-2.14,1.49c-1.56,0-2.29-1.15-2.36-2.79h6v-.43c0-2.48-1.2-4.16-3.64-4.16S663.71,410.07,663.71,412.6Zm3.81-3.17c1.47,0,2.16.85,2.24,2.34h-4.54A2.25,2.25,0,0,1,667.52,409.43Z"/>
    <path class="cls-2" d="M674.75,406.05h-1.39v2.47H672v1.13h1.37v4.74c0,1.54.39,2.37,1.89,2.37a4.62,4.62,0,0,0,1.22-.14v-1.11a3.49,3.49,0,0,1-.71.07c-.83,0-1-.42-1-1.3v-4.63h1.76v-1.13h-1.76Z"/>
    <rect class="cls-2" x="438.49" y="416.17" width="6.89" height="6.89"/>
  </g>
</svg>
