<svg id="Layer_1" data-name="Layer 1" xmlns="http://www.w3.org/2000/svg" viewBox="0 0 874.01 617.95">
  <defs>
    <style>
      .cls-1 {
        fill: #474849;
      }

      .cls-2 {
        fill: #fff;
      }
    </style>
  </defs>
  <title>DropperTypefaceAnimation</title>
  <rect class="cls-1" x="-0.31" y="-0.01" width="874" height="617.98"/>
  <g>
    <path class="cls-2" d="M213.08,213.18c0-13.69,4.74-22.66,17.54-22.66,10.75,0,14.2,6.79,14.2,18.56v38.53h11.4V208.06c0-16.26-6.15-27.26-22.28-27.26-10.36,0-16.38,3.45-21,12.54.13-3.07.13-7.94.13-11V157H201.94v90.62h11.14Z"/>
    <path class="cls-2" d="M302,249.15c15.1,0,25.86-7.68,28.67-21.12H319.58c-2.44,8.19-8.2,11.9-16.9,11.9-12.29,0-18.18-9.34-18.69-22.4h47.62v-3.32c0-20-9.47-33.41-28.8-33.41s-30.47,14.59-30.47,34.69C272.34,235.33,283.35,249.15,302,249.15Zm.51-59c11.65,0,17,6.78,17.67,18.82h-36C285,198.2,291.16,190.14,302.55,190.14Z"/>
    <path class="cls-2" d="M347.86,247.61h11.26V214c0-12.42,6.28-21.89,19.33-21.89.64,0,1.67,0,3.08.13V180.92a27.66,27.66,0,0,0-2.95-.12c-9.21,0-17,6.4-19.84,14.72,0-3.59,0-10.12-.13-13.19H347.73c.13,4.61.13,11,.13,14.08Z"/>
    <rect class="cls-2" x="395.35" y="156.99" width="11.52" height="13.44"/>
    <rect class="cls-2" x="395.47" y="182.33" width="11.26" height="65.28"/>
    <path class="cls-2" d="M429.91,230.08c0,11.9,2.81,18.69,14.84,18.69,2.82,0,7.17-.26,9.73-1.16v-8.7a30.42,30.42,0,0,1-5.76.51c-6.4,0-7.68-3.45-7.68-10.37V191.93h13.83v-9.09H441V163.13H430v19.71H419.15v9.09h10.76Z"/>
    <path class="cls-2" d="M498,208.57c-21.63-.12-32.77,6.4-32.77,21.51,0,11.26,8.71,19.07,21.64,19.07,9.72,0,18.56-3.33,22.91-12.54a56.66,56.66,0,0,0,1.28,11h10.62c-.25-1.91-1.28-10.75-1.28-13.82V202.94c0-15.23-8.83-22.14-25.85-22.14-14.47,0-25.22,6.14-25.86,20.48h10.75c1-8.07,6.27-11.52,14.85-11.52s15.1,3.2,15.1,12.16v6.78C506.71,208.57,499,208.57,498,208.57Zm11.52,8.58v1.41c0,12.16-6.14,21.63-19.71,21.63-7,0-13.18-3.33-13.18-10.75,0-10.11,9.21-12.55,23-12.55C502.74,216.89,505.94,217,509.52,217.15Z"/>
    <path class="cls-2" d="M563.67,247.23c10,0,16.76-3.2,21-12v4.73c0,15.49-3.59,25.22-19.07,25.22-8.58,0-14.47-2.94-16.39-10.62H538.06c1.54,13.18,12.17,20,27.27,20,20.74,0,30.34-12.16,30.34-34.57V196.41c0-3.07,0-9.47.13-14.08H585c-.13,3.07-.13,7.17-.13,11-3.58-8.7-10.11-12.54-20.48-12.54-17.66,0-27.9,14.46-27.9,34.3C536.53,234.05,546,247.23,563.67,247.23Zm3.2-56.83c13.18,0,18,9.6,18,23.81,0,13.82-5.24,23.93-18.81,23.93-11.78,0-17.92-9.21-17.92-22.91S553.43,190.4,566.87,190.4Z"/>
    <path class="cls-2" d="M641.87,249.15c15.11,0,25.86-7.68,28.68-21.12H659.41c-2.43,8.19-8.19,11.9-16.9,11.9-12.29,0-18.17-9.34-18.69-22.4h47.62v-3.32c0-20-9.47-33.41-28.8-33.41s-30.46,14.59-30.46,34.69C612.18,235.33,623.18,249.15,641.87,249.15Zm.52-59c11.64,0,17,6.78,17.66,18.82h-36C624.85,198.2,631,190.14,642.39,190.14Z"/>
  </g>
  <g>
    <path class="cls-2" d="M245.52,434.19V435l390.74,1.25h3.37l-.09-3.37-1.17-43.74h-.85l-391.68.32Zm196.15-44.31-.25,14.21-195.28.31-.1-14.68Zm195.82.16-.37,13.73-194.67.32-.25-14.21Zm-1.15,42.9L443,433.56l-.23-13.15,193.93.46Zm.39-14.58-194,.46-.24-13.68,194.61.32ZM441.4,405.14l-.24,13.69-194.91.47-.1-14.47Zm-.27,15.26-.23,13.17-194.55.62-.1-14.26Z"/>
    <path class="cls-2" d="M198.85,410.68c0,1.47,1.21,1.93,3.16,2.38,1.2.27,2,.47,2,1.35s-.85,1.31-1.89,1.31A1.86,1.86,0,0,1,200,414.1H198.6c.14,1.81,1.36,2.71,3.44,2.71,1.92,0,3.35-.84,3.35-2.52,0-1.52-1.12-2.06-3.29-2.54-1.07-.24-1.85-.45-1.85-1.25s.69-1.14,1.68-1.14,1.84.4,1.94,1.4h1.34c-.05-1.59-1.36-2.5-3.22-2.5S198.85,409.08,198.85,410.68Z"/>
    <rect class="cls-2" x="207.19" y="405.28" width="1.39" height="11.33"/>
    <rect class="cls-2" x="210.97" y="405.28" width="1.44" height="1.68"/>
    <rect class="cls-2" x="210.98" y="408.45" width="1.41" height="8.16"/>
    <path class="cls-2" d="M216.17,409.83c0-.45,0-1,0-1.38h-1.37c0,.58,0,1.38,0,1.76v6.41h1.39v-4.34c0-1.6.56-2.8,2-2.8,1.2,0,1.59.73,1.59,2.14v5h1.4v-4.55c0-1.52.6-2.59,2-2.59,1.09,0,1.62.72,1.62,2v5.13h1.4v-5.09c0-1.94-.73-3.27-2.62-3.27a2.58,2.58,0,0,0-2.61,1.57,2.22,2.22,0,0,0-2.32-1.57A2.56,2.56,0,0,0,216.17,409.83Z"/>
    <path class="cls-2" d="M429.31,464.28h-2.19v9.48c0,.32,0,1.09,0,1.86h2.16c0-.29,0-.71,0-1.09a2.39,2.39,0,0,0,2.34,1.28c2.35,0,3.46-2,3.46-4.47,0-2.3-1.09-4.18-3.35-4.18a2.42,2.42,0,0,0-2.43,1.36c0-.38,0-.78,0-1.16ZM431,469c1.24,0,1.78,1,1.78,2.44s-.48,2.58-1.76,2.58-1.81-1.06-1.81-2.53S429.68,469,431,469Z"/>
    <path class="cls-2" d="M444.52,471.44c0-2.53-1.44-4.28-4.07-4.28s-4.13,1.72-4.13,4.29,1.39,4.36,4.1,4.36S444.52,474.11,444.52,471.44Zm-6,0c0-1.39.51-2.5,1.86-2.5s1.84,1,1.84,2.51-.5,2.6-1.82,2.6S438.56,472.94,438.56,471.44Z"/>
    <rect class="cls-2" x="446.1" y="464.28" width="2.21" height="11.33"/>
    <path class="cls-2" d="M453.41,467.16c-2.3,0-3.52,1.83-3.52,4.41,0,2.33,1.07,4.24,3.33,4.24a2.49,2.49,0,0,0,2.48-1.39c0,.38,0,.91,0,1.2h2.14c0-.77,0-1.67,0-1.86v-9.48h-2.2v3.08c0,.38,0,.65,0,1A2.22,2.22,0,0,0,453.41,467.16Zm2.29,4.34c0,1.47-.45,2.51-1.79,2.51s-1.78-1.1-1.78-2.54.46-2.46,1.81-2.46S455.7,470,455.7,471.5Z"/>
    <path class="cls-2" d="M417.93,355.62h1.42v-4.21c0-1.56.79-2.74,2.44-2.74h.38v-1.4a2.56,2.56,0,0,0-.37,0,2.66,2.66,0,0,0-2.49,1.84c0-.45,0-1.26,0-1.65h-1.38c0,.58,0,1.38,0,1.76Z"/>
    <path class="cls-2" d="M426.73,355.81a3.36,3.36,0,0,0,3.62-2.66H429a2,2,0,0,1-2.15,1.49c-1.55,0-2.29-1.15-2.35-2.79h6v-.43c0-2.48-1.2-4.16-3.63-4.16S423,349.07,423,351.6,424.38,355.81,426.73,355.81Zm.07-7.38c1.47,0,2.16.85,2.24,2.34h-4.55A2.26,2.26,0,0,1,426.8,348.43Z"/>
    <path class="cls-2" d="M435.55,357.81c-1.12,0-1.83-.37-2.07-1.33h-1.41c.18,1.65,1.54,2.5,3.44,2.5,2.6,0,3.85-1.51,3.85-4.34v-5.43c0-.38,0-1.18,0-1.76H438c0,.39,0,.91,0,1.38a2.53,2.53,0,0,0-2.6-1.57c-2.19,0-3.52,1.81-3.52,4.27s1.23,4,3.43,4a2.6,2.6,0,0,0,2.65-1.51v.58C438,356.59,437.5,357.81,435.55,357.81Zm.06-3.39c-1.47,0-2.26-1.17-2.26-2.85s.71-3.11,2.36-3.11,2.29,1.17,2.29,3S437.29,354.42,435.61,354.42Z"/>
    <path class="cls-2" d="M441.77,347.45v5.09c0,2,.83,3.27,2.77,3.27a2.55,2.55,0,0,0,2.61-1.65c0,.45,0,1.07,0,1.46h1.36c0-.58,0-1.48,0-1.86v-6.31h-1.43v4c0,1.84-.49,3.1-2.17,3.1-1.24,0-1.72-.82-1.72-2.19v-4.95Z"/>
    <rect class="cls-2" x="450.97" y="344.28" width="1.41" height="11.33"/>
    <path class="cls-2" d="M458.41,350.73c-2.74,0-4.13.8-4.13,2.69a2.45,2.45,0,0,0,2.74,2.39,3,3,0,0,0,2.9-1.57,6.71,6.71,0,0,0,.16,1.38h1.34c0-.24-.16-1.35-.16-1.73V350c0-1.91-1.14-2.77-3.28-2.77-1.84,0-3.19.77-3.27,2.56h1.36c.13-1,.8-1.44,1.88-1.44s1.92.4,1.92,1.52v.85C459.53,350.73,458.54,350.73,458.41,350.73Zm1.47,1.08V352a2.41,2.41,0,0,1-2.49,2.71c-.9,0-1.67-.42-1.67-1.35,0-1.26,1.17-1.57,2.9-1.57C459,351.77,459.44,351.79,459.88,351.81Z"/>
    <path class="cls-2" d="M463.67,355.62h1.43v-4.21c0-1.56.78-2.74,2.43-2.74h.38v-1.4a2.49,2.49,0,0,0-.36,0,2.67,2.67,0,0,0-2.5,1.84c0-.45,0-1.26,0-1.65h-1.37c0,.58,0,1.38,0,1.76Z"/>
    <path class="cls-2" d="M190.57,355.62H192v-4.21c0-1.56.79-2.74,2.43-2.74h.39v-1.4a2.56,2.56,0,0,0-.37,0,2.68,2.68,0,0,0-2.5,1.84c0-.45,0-1.26,0-1.65h-1.38c0,.58,0,1.38,0,1.76Z"/>
    <path class="cls-2" d="M199.43,355.81c2.6,0,3.92-1.76,3.92-4.37s-1.37-4.18-3.82-4.18-3.91,1.81-3.91,4.32S197,355.81,199.43,355.81Zm0-7.37c1.67,0,2.43,1.28,2.43,3s-.68,3.15-2.41,3.15-2.42-1.31-2.42-3.05S197.78,348.44,199.48,348.44Z"/>
    <path class="cls-2" d="M205.26,355.62h1.4v-4.34c0-1.6.58-2.8,2-2.8,1.2,0,1.58.73,1.58,2.14v5h1.43v-4.55c0-1.52.59-2.59,2-2.59,1.09,0,1.61.72,1.61,2v5.13h1.43v-5.09c0-1.94-.74-3.27-2.64-3.27a2.6,2.6,0,0,0-2.63,1.57,2.22,2.22,0,0,0-2.34-1.57,2.58,2.58,0,0,0-2.49,1.57c0-.45,0-1,0-1.38h-1.39c0,.58,0,1.38,0,1.76Z"/>
    <path class="cls-2" d="M222.73,350.73c-2.74,0-4.13.8-4.13,2.69a2.45,2.45,0,0,0,2.74,2.39,3,3,0,0,0,2.89-1.57,7.49,7.49,0,0,0,.16,1.38h1.35c0-.24-.16-1.35-.16-1.73V350c0-1.91-1.14-2.77-3.28-2.77-1.84,0-3.19.77-3.27,2.56h1.36c.13-1,.8-1.44,1.87-1.44s1.93.4,1.93,1.52v.85C223.85,350.73,222.86,350.73,222.73,350.73Zm1.47,1.08V352a2.41,2.41,0,0,1-2.5,2.71c-.89,0-1.66-.42-1.66-1.35,0-1.26,1.17-1.57,2.9-1.57C223.32,351.77,223.75,351.79,224.2,351.81Z"/>
    <path class="cls-2" d="M234.84,355.62v-5c0-2-.73-3.38-2.78-3.38a2.7,2.7,0,0,0-2.69,1.58c0-.44,0-1,0-1.39H228c0,.58,0,1.38,0,1.76v6.41h1.41v-4.23c0-1.78.62-2.91,2.24-2.91,1.28,0,1.76.8,1.76,2.27v4.87Z"/>
    <polygon class="cls-2" points="649.19 355.62 650.62 355.62 652.2 347.45 650.78 347.45 649.19 355.62"/>
    <polygon class="cls-2" points="652.84 344.28 651.38 344.28 651.05 345.96 652.5 345.96 652.84 344.28"/>
    <path class="cls-2" d="M655.59,345.05l-.48,2.47H653.7l-.22,1.13h1.39l-.91,4.68c-.29,1.53,0,2.43,1.52,2.43a4.94,4.94,0,0,0,1.12-.11l.24-1.15a5.56,5.56,0,0,1-.82.08c-.78,0-.83-.36-.65-1.24l.91-4.69H658l.22-1.13H656.5l.49-2.47Z"/>
    <path class="cls-2" d="M665,348.83a2,2,0,0,0-2.29-1.57c-2.24,0-3.84,1.91-4.29,4.24s.43,4.31,2.61,4.31a3.27,3.27,0,0,0,2.93-1.57,14,14,0,0,0-.24,1.38h1.36c0-.49.22-1.43.3-1.8l.9-4.54.37-1.83h-1.38C665.21,347.77,665.1,348.32,665,348.83Zm-.5,2.53c-.37,1.87-1.34,3.25-3,3.25-1.47,0-1.94-1.28-1.6-2.95s1.38-3.2,3-3.2S664.86,349.61,664.52,351.36Z"/>
    <polygon class="cls-2" points="671.14 344.28 669.74 344.28 667.53 355.62 668.94 355.62 671.14 344.28"/>
    <polygon class="cls-2" points="671.4 355.62 672.82 355.62 674.41 347.45 672.98 347.45 671.4 355.62"/>
    <polygon class="cls-2" points="673.26 345.96 674.71 345.96 675.05 344.28 673.59 344.28 673.26 345.96"/>
    <path class="cls-2" d="M675.37,351.5c-.48,2.47.46,4.31,3,4.31a3.94,3.94,0,0,0,4-2.93h-1.39a2.66,2.66,0,0,1-2.5,1.74c-1.53,0-1.95-1.25-1.61-2.89s1.34-3.27,3-3.27c1.15,0,1.75.53,1.67,1.68h1.34c.21-1.76-1-2.88-2.88-2.88C677.51,347.26,675.86,349,675.37,351.5Z"/>
    <path class="cls-2" d="M655.68,410.69c0,1.46,1.18,1.91,3.18,2.37,1.22.29,2,.48,2,1.33S660,415.7,659,415.7c-1.22,0-2-.49-2.16-1.61h-1.38c.16,1.82,1.4,2.72,3.48,2.72,1.92,0,3.37-.82,3.37-2.52,0-1.53-1.15-2.06-3.31-2.54-1.07-.24-1.87-.43-1.87-1.25s.73-1.14,1.7-1.14,1.87.4,2,1.4h1.35c-.05-1.59-1.39-2.5-3.25-2.5S655.68,409.06,655.68,410.69Z"/>
    <path class="cls-2" d="M663.71,412.6c0,2.48,1.39,4.21,3.75,4.21a3.35,3.35,0,0,0,3.61-2.66h-1.39a2,2,0,0,1-2.14,1.49c-1.56,0-2.29-1.15-2.36-2.79h6v-.43c0-2.48-1.2-4.16-3.64-4.16S663.71,410.07,663.71,412.6Zm3.81-3.17c1.47,0,2.16.85,2.24,2.34h-4.54A2.25,2.25,0,0,1,667.52,409.43Z"/>
    <path class="cls-2" d="M676.51,409.65v-1.13h-1.76v-2.47h-1.39v2.47H672v1.13h1.37v4.74c0,1.54.39,2.37,1.89,2.37a4.62,4.62,0,0,0,1.22-.14v-1.11a3.49,3.49,0,0,1-.71.07c-.83,0-1-.42-1-1.3v-4.63Z"/>
    <rect class="cls-2" x="242.49" y="386.17" width="6.89" height="6.89"/>
  </g>
</svg>
