<svg id="Layer_1" data-name="Layer 1" xmlns="http://www.w3.org/2000/svg" viewBox="0 0 874.01 617.95">
  <defs>
    <style>
      .cls-1 {
        fill: #474849;
      }

      .cls-2 {
        fill: #fff;
      }
    </style>
  </defs>
  <title>DropperTypefaceAnimation</title>
  <rect class="cls-1" x="-0.31" y="-0.01" width="874" height="617.98"/>
  <g>
    <path class="cls-2" d="M205.87,213.69c2.31-11.52,8.45-20.48,19.59-20.48,9,0,10.24,5.25,8.32,15.24l-7.68,39.17h15.61l7.55-38.41c3.33-17.28-.51-28.93-17.92-28.93-8.7,0-15.87,3.21-21.63,12,.77-2.43,1.67-6.79,2.31-9.86L217,157H201.39l-17.66,90.63h15.48Z"/>
    <path class="cls-2" d="M324.91,218.94l.9-4c4-21.12-4.1-34.69-24.71-34.69-19.2,0-33.41,13.19-37.5,33.41-4.23,21.77,5.12,35.46,25.73,35.46,15.74,0,27.64-6.91,33-21.25H307.12c-3.33,5.51-8.71,9.09-16.64,9.09-9.73,0-13.83-6.66-12.16-18.05Zm-24.32-26.37c9.47,0,12.67,4.87,11.39,15.75H280.75C283.18,199.87,290.09,192.57,300.59,192.57Z"/>
    <path class="cls-2" d="M347.31,181.82c-.77,4.87-2.05,11.39-2.56,14l-10.24,51.85h15.61L356.4,216c2.43-12.8,10.11-20.35,23.42-20.35a14.47,14.47,0,0,1,2.56,0l1.92-15.37c-1.28,0-2.81,0-4.35.13-8.19.51-14.72,4.61-20,13.7.64-2.94,1.79-9.09,2.3-12.29Z"/>
    <polygon class="cls-2" points="400.56 171.97 416.56 171.97 419.5 156.99 403.5 156.99 400.56 171.97"/>
    <polygon class="cls-2" points="386.09 247.62 401.83 247.62 414.64 181.82 398.89 181.82 386.09 247.62"/>
    <path class="cls-2" d="M424.74,194.37h10.63l-6.78,34.56c-2.56,13.18,1.66,19.71,14.72,19.71a42.52,42.52,0,0,0,9.6-.9l2.3-11.9a38.08,38.08,0,0,1-5.76.51c-5.89,0-6.4-1.53-5.12-8.19L451,194.37H464.3l2.3-11.91H453.29l3.84-19.2H441.51l-3.71,19.2H427.05Z"/>
    <path class="cls-2" d="M526.51,247.62c.64-4.87,2-12,2.56-14.21l7-35.84,3.2-15.75H524.2c-.51,2.18-1.28,6-2,9.86-1.92-7.17-7.69-11.4-17.67-11.4-17.54,0-30.21,15-33.79,33.67-3.72,19.33,2.56,35.2,20.48,35.2,9.34,0,16.25-2.81,22.14-11.65a65.46,65.46,0,0,0-1.92,10.12Zm-30.08-11.27c-10,0-12.68-8.83-10.24-20.48,2.68-12.67,9.47-22.53,21.12-22.53,10.37,0,13.05,7.68,10.37,20C515.24,226.62,508.46,236.35,496.43,236.35Z"/>
    <path class="cls-2" d="M600.49,191.42c-2.3-7.17-8.71-11.14-18-11.14-17.41,0-30.08,14.34-33.66,32.52C545.06,232,552.23,247,570.66,247c8.07,0,15.62-2.31,21.12-10.24l-.51,2.3c-3.32,14.21-7.68,23.17-21.76,23.17-7.17,0-11.39-1.41-11.65-8.45H542.63c-1.54,13.31,9.22,20.61,26,20.61,21.76,0,33-10.63,37.5-33.54l8.45-43.78c.51-2,1.92-9,3.07-15.23h-15.1C602,183.87,601.13,187.84,600.49,191.42Zm-4,21c-2.56,12.68-9.34,21.89-21.12,21.89-9.86,0-13.31-8.06-11.14-18.69,2.44-12,9.6-22.27,21.38-22.27C595.88,193.34,599,200.25,596.52,212.41Z"/>
    <path class="cls-2" d="M664,180.28c-19.2,0-33.4,13.19-37.5,33.41-4.23,21.77,5.12,35.46,25.73,35.46,15.74,0,27.65-6.91,33-21.25H670c-3.33,5.51-8.7,9.09-16.64,9.09-9.73,0-13.82-6.66-12.16-18.05h46.59l.9-4C692.65,193.85,684.58,180.28,664,180.28Zm10.89,28H643.62c2.43-8.45,9.35-15.75,19.84-15.75C672.94,192.57,676.14,197.44,674.86,208.32Z"/>
  </g>
  <g>
    <path class="cls-2" d="M639.62,436.3l-.09-3.37-1.17-43.74h-.85l-391.68.31-.31,44.68V435l390.74,1.25ZM440.9,433.57l-194.55.62-.1-14.26,194.88.47Zm.77-43.69-.25,14.21-195.28.31-.1-14.68Zm195.82.16-.37,13.73-194.67.32-.25-14.21Zm-.41,15.42-.35,12.9-194,.46-.24-13.68Zm-195.68-.32-.24,13.69-194.91.47-.1-14.47Zm195.27,15.73-.33,12.07L443,433.56l-.23-13.15Z"/>
    <path class="cls-2" d="M201.93,409.36c1.07,0,1.84.41,1.94,1.4h1.34c-.05-1.59-1.36-2.5-3.22-2.5s-3.14.82-3.14,2.42,1.21,1.93,3.16,2.38c1.2.27,2,.47,2,1.35s-.85,1.31-1.89,1.31A1.86,1.86,0,0,1,200,414.1H198.6c.14,1.81,1.36,2.71,3.44,2.71,1.92,0,3.35-.83,3.35-2.52,0-1.52-1.12-2.06-3.29-2.54-1.07-.24-1.85-.45-1.85-1.25S200.94,409.36,201.93,409.36Z"/>
    <rect class="cls-2" x="207.19" y="405.28" width="1.39" height="11.33"/>
    <rect class="cls-2" x="210.97" y="405.28" width="1.44" height="1.68"/>
    <rect class="cls-2" x="210.98" y="408.45" width="1.41" height="8.16"/>
    <path class="cls-2" d="M216.17,409.83c0-.45,0-1,0-1.38h-1.37c0,.58,0,1.38,0,1.76v6.41h1.39v-4.34c0-1.6.56-2.8,2-2.8,1.2,0,1.59.73,1.59,2.14v5h1.4v-4.55c0-1.52.6-2.59,2-2.59,1.09,0,1.62.72,1.62,2v5.13h1.4v-5.09c0-1.94-.73-3.27-2.62-3.27a2.58,2.58,0,0,0-2.61,1.57,2.22,2.22,0,0,0-2.32-1.57A2.56,2.56,0,0,0,216.17,409.83Z"/>
    <path class="cls-2" d="M429.31,464.28h-2.19v9.48c0,.32,0,1.09,0,1.86h2.16c0-.29,0-.71,0-1.09a2.39,2.39,0,0,0,2.34,1.28c2.35,0,3.46-2,3.46-4.47,0-2.3-1.09-4.18-3.35-4.18a2.41,2.41,0,0,0-2.43,1.37c0-.39,0-.79,0-1.17ZM431,469c1.24,0,1.78,1,1.78,2.44s-.48,2.58-1.76,2.58-1.81-1-1.81-2.53S429.68,469,431,469Z"/>
    <path class="cls-2" d="M444.52,471.44c0-2.53-1.44-4.28-4.07-4.28s-4.13,1.72-4.13,4.29,1.39,4.36,4.1,4.36S444.52,474.11,444.52,471.44Zm-6,0c0-1.39.51-2.5,1.86-2.5s1.84,1,1.84,2.51-.5,2.6-1.82,2.6S438.56,472.94,438.56,471.44Z"/>
    <rect class="cls-2" x="446.1" y="464.28" width="2.21" height="11.33"/>
    <path class="cls-2" d="M453.41,467.16c-2.3,0-3.52,1.83-3.52,4.41,0,2.33,1.07,4.24,3.33,4.24a2.49,2.49,0,0,0,2.48-1.39c0,.38,0,.91,0,1.2h2.14c0-.77,0-1.67,0-1.86v-9.48h-2.2v3.08c0,.38,0,.65,0,1A2.22,2.22,0,0,0,453.41,467.16Zm2.29,4.34c0,1.48-.45,2.52-1.79,2.52s-1.78-1.11-1.78-2.55.46-2.46,1.81-2.46S455.7,470,455.7,471.5Z"/>
    <path class="cls-2" d="M419.35,355.62v-4.21c0-1.56.79-2.74,2.44-2.74a3.07,3.07,0,0,1,.38,0v-1.41a2.56,2.56,0,0,0-.37,0,2.66,2.66,0,0,0-2.49,1.84c0-.45,0-1.26,0-1.65h-1.38c0,.58,0,1.38,0,1.76v6.41Z"/>
    <path class="cls-2" d="M423,351.6c0,2.48,1.39,4.21,3.74,4.21a3.36,3.36,0,0,0,3.62-2.66H429a2,2,0,0,1-2.15,1.49c-1.55,0-2.29-1.15-2.35-2.79h6v-.43c0-2.48-1.2-4.16-3.63-4.16S423,349.07,423,351.6Zm6.05-.83h-4.55a2.26,2.26,0,0,1,2.31-2.34C428.27,348.43,429,349.28,429,350.77Z"/>
    <path class="cls-2" d="M435.55,357.81c-1.12,0-1.83-.37-2.07-1.33h-1.41c.18,1.65,1.54,2.5,3.44,2.5,2.6,0,3.85-1.51,3.85-4.34v-5.43c0-.38,0-1.18,0-1.76H438c0,.39,0,.91,0,1.38a2.53,2.53,0,0,0-2.6-1.57c-2.19,0-3.52,1.81-3.52,4.27s1.23,4,3.43,4a2.6,2.6,0,0,0,2.65-1.51v.58C438,356.59,437.5,357.81,435.55,357.81Zm.06-3.39c-1.47,0-2.26-1.17-2.26-2.85s.71-3.11,2.36-3.11,2.29,1.17,2.29,3S437.29,354.42,435.61,354.42Z"/>
    <path class="cls-2" d="M441.77,347.45v5.09c0,2,.83,3.27,2.77,3.27a2.55,2.55,0,0,0,2.61-1.65c0,.45,0,1.07,0,1.46h1.36c0-.58,0-1.48,0-1.86v-6.31h-1.43v4c0,1.84-.49,3.1-2.17,3.1-1.24,0-1.72-.81-1.72-2.19v-4.95Z"/>
    <rect class="cls-2" x="450.97" y="344.28" width="1.41" height="11.33"/>
    <path class="cls-2" d="M458.41,350.73c-2.74,0-4.13.8-4.13,2.69a2.45,2.45,0,0,0,2.74,2.39,3,3,0,0,0,2.9-1.57,6.71,6.71,0,0,0,.16,1.38h1.34c0-.24-.16-1.35-.16-1.73V350c0-1.91-1.14-2.77-3.28-2.77-1.84,0-3.19.77-3.27,2.56h1.36c.13-1,.8-1.44,1.88-1.44s1.92.4,1.92,1.52v.85C459.53,350.73,458.54,350.73,458.41,350.73Zm1.47,1.08V352a2.41,2.41,0,0,1-2.49,2.71c-.9,0-1.67-.42-1.67-1.35,0-1.26,1.17-1.57,2.9-1.57C459,351.77,459.44,351.79,459.88,351.81Z"/>
    <path class="cls-2" d="M465.1,355.62v-4.21c0-1.56.78-2.74,2.43-2.74a3.07,3.07,0,0,1,.38,0v-1.41a2.49,2.49,0,0,0-.36,0,2.67,2.67,0,0,0-2.5,1.84c0-.45,0-1.26,0-1.65h-1.37c0,.58,0,1.38,0,1.76v6.41Z"/>
    <path class="cls-2" d="M192,355.62v-4.21c0-1.56.79-2.74,2.43-2.74a3.3,3.3,0,0,1,.39,0v-1.41a2.56,2.56,0,0,0-.37,0,2.68,2.68,0,0,0-2.5,1.84c0-.45,0-1.26,0-1.65h-1.38c0,.58,0,1.38,0,1.76v6.41Z"/>
    <path class="cls-2" d="M199.53,347.26c-2.51,0-3.91,1.81-3.91,4.32s1.33,4.23,3.81,4.23,3.92-1.76,3.92-4.37S202,347.26,199.53,347.26Zm0,7.36c-1.65,0-2.42-1.31-2.42-3.05s.7-3.12,2.4-3.12,2.43,1.28,2.43,3S201.23,354.62,199.5,354.62Z"/>
    <path class="cls-2" d="M214.11,347.26a2.6,2.6,0,0,0-2.63,1.57,2.22,2.22,0,0,0-2.34-1.57,2.58,2.58,0,0,0-2.49,1.57c0-.45,0-1,0-1.38h-1.39c0,.58,0,1.38,0,1.76v6.41h1.4v-4.34c0-1.6.58-2.8,2-2.8,1.2,0,1.58.73,1.58,2.14v5h1.43v-4.55c0-1.52.59-2.59,2-2.59,1.09,0,1.61.72,1.61,2v5.13h1.43v-5.09C216.75,348.59,216,347.26,214.11,347.26Z"/>
    <path class="cls-2" d="M222.73,350.73c-2.74,0-4.13.8-4.13,2.69a2.45,2.45,0,0,0,2.74,2.39,3,3,0,0,0,2.89-1.57,7.49,7.49,0,0,0,.16,1.38h1.35c0-.24-.16-1.35-.16-1.73V350c0-1.91-1.14-2.77-3.28-2.77-1.84,0-3.19.77-3.27,2.56h1.36c.13-1,.8-1.44,1.87-1.44s1.93.4,1.93,1.52v.85C223.85,350.73,222.86,350.73,222.73,350.73Zm1.47,1.08V352a2.41,2.41,0,0,1-2.5,2.71c-.89,0-1.66-.42-1.66-1.35,0-1.26,1.17-1.57,2.9-1.57C223.32,351.77,223.75,351.79,224.2,351.81Z"/>
    <path class="cls-2" d="M234.84,355.62v-5c0-2-.73-3.38-2.78-3.38a2.69,2.69,0,0,0-2.69,1.59c0-.45,0-1,0-1.4H228c0,.58,0,1.38,0,1.76v6.41h1.41v-4.23c0-1.78.62-2.91,2.24-2.91,1.28,0,1.76.8,1.76,2.27v4.87Z"/>
    <polygon class="cls-2" points="649.19 355.62 650.62 355.62 652.2 347.45 650.78 347.45 649.19 355.62"/>
    <polygon class="cls-2" points="652.84 344.28 651.38 344.28 651.05 345.96 652.5 345.96 652.84 344.28"/>
    <path class="cls-2" d="M655.59,345.05l-.48,2.47H653.7l-.22,1.13h1.39l-.91,4.68c-.29,1.53,0,2.43,1.52,2.43a4.94,4.94,0,0,0,1.12-.11l.24-1.15a5.56,5.56,0,0,1-.82.08c-.78,0-.83-.36-.65-1.24l.91-4.69H658l.22-1.13H656.5l.49-2.47Z"/>
    <path class="cls-2" d="M665,348.83a2,2,0,0,0-2.29-1.57c-2.24,0-3.84,1.91-4.29,4.24s.43,4.31,2.61,4.31a3.27,3.27,0,0,0,2.93-1.57,14,14,0,0,0-.24,1.38h1.36c0-.48.22-1.43.3-1.8l.9-4.54.37-1.83h-1.38C665.21,347.77,665.1,348.32,665,348.83Zm-.5,2.53c-.37,1.87-1.34,3.25-3,3.25-1.47,0-1.94-1.28-1.6-2.95s1.38-3.2,3-3.2S664.86,349.61,664.52,351.36Z"/>
    <polygon class="cls-2" points="671.14 344.28 669.74 344.28 667.53 355.62 668.94 355.62 671.14 344.28"/>
    <polygon class="cls-2" points="671.4 355.62 672.82 355.62 674.41 347.45 672.98 347.45 671.4 355.62"/>
    <polygon class="cls-2" points="673.26 345.96 674.71 345.96 675.05 344.28 673.59 344.28 673.26 345.96"/>
    <path class="cls-2" d="M679.8,348.46c1.15,0,1.75.53,1.67,1.68h1.34c.21-1.76-1-2.88-2.88-2.88-2.42,0-4.07,1.78-4.56,4.24s.46,4.31,3,4.31a3.94,3.94,0,0,0,4-2.93h-1.39a2.66,2.66,0,0,1-2.5,1.74c-1.53,0-1.95-1.25-1.61-2.89S678.15,348.46,679.8,348.46Z"/>
    <path class="cls-2" d="M655.68,410.69c0,1.46,1.18,1.91,3.18,2.37,1.22.29,2,.48,2,1.33S660,415.7,659,415.7c-1.22,0-2-.49-2.16-1.61h-1.38c.16,1.82,1.4,2.72,3.48,2.72,1.92,0,3.37-.82,3.37-2.52,0-1.53-1.15-2.06-3.31-2.54-1.07-.24-1.87-.43-1.87-1.25s.73-1.14,1.7-1.14,1.87.41,2,1.4h1.35c-.05-1.59-1.39-2.5-3.25-2.5S655.68,409.06,655.68,410.69Z"/>
    <path class="cls-2" d="M663.71,412.6c0,2.48,1.39,4.21,3.75,4.21a3.35,3.35,0,0,0,3.61-2.66h-1.39a2,2,0,0,1-2.14,1.49c-1.56,0-2.29-1.15-2.36-2.79h6v-.43c0-2.48-1.2-4.16-3.64-4.16S663.71,410.07,663.71,412.6Zm3.81-3.17c1.47,0,2.16.85,2.24,2.34h-4.54A2.25,2.25,0,0,1,667.52,409.43Z"/>
    <path class="cls-2" d="M674.75,406.05h-1.39v2.47H672v1.13h1.37v4.74c0,1.54.39,2.37,1.89,2.37a4.62,4.62,0,0,0,1.22-.14v-1.11a3.49,3.49,0,0,1-.71.07c-.83,0-1-.42-1-1.3v-4.63h1.76v-1.13h-1.76Z"/>
    <rect class="cls-2" x="634.49" y="415.38" width="6.89" height="6.89"/>
  </g>
</svg>
