<svg id="Layer_1" data-name="Layer 1" xmlns="http://www.w3.org/2000/svg" viewBox="0 0 874.01 617.95">
  <defs>
    <style>
      .cls-1 {
        fill: #474849;
      }

      .cls-2 {
        fill: #fff;
      }
    </style>
  </defs>
  <title>DropperTypefaceAnimation</title>
  <rect class="cls-1" x="-0.31" y="-0.01" width="874" height="617.98"/>
  <g>
    <path class="cls-2" d="M212.2,212.54c2.05-10.5,7.42-18.17,17.28-18.17,7.42,0,8.83,4.6,7.17,13.56l-7.81,39.69h17.41l7.55-38.54c3.33-17.15.13-29.05-17.41-29.05-8.45,0-14.72,2.56-20.22,11a69.74,69.74,0,0,0,1.92-8.71l5-25.34H205.67l-17.79,90.63h17.41Z"/>
    <path class="cls-2" d="M327.4,219.58c.51-2.05.9-3.84,1-4.48,4-21.63-3.84-35.07-24.83-35.07-18.69,0-33.15,12.8-37.25,33.41-4.35,22,5.12,35.71,26,35.71,15,0,27.26-6.65,32.77-21.25h-17c-3.2,4.48-7.55,7.68-14.72,7.68-8.06,0-12-5.76-10.62-16Zm-24.19-26c8.32,0,10.75,4.6,9.72,14.46H285.41C287.72,200.64,294,193.6,303.21,193.6Z"/>
    <path class="cls-2" d="M348,181.56c-.89,5.38-2.17,11.78-2.68,14.08l-10.24,52h17.4l6.15-30.85c2.43-13.06,9.6-19.33,22.53-19.33a12.77,12.77,0,0,1,2.43,0l2.3-17.41c-1.15,0-3.32,0-5,.13-7.55.76-12.93,4.09-18.56,13.18.64-2.69,1.79-8.7,2.3-11.78Z"/>
    <polygon class="cls-2" points="386.02 247.62 403.68 247.62 416.61 181.56 398.95 181.56 386.02 247.62"/>
    <polygon class="cls-2" points="400.61 172.47 418.53 172.47 421.6 156.99 403.68 156.99 400.61 172.47"/>
    <path class="cls-2" d="M425.31,195.64H435l-6.66,33.41c-2.3,12.68,2.05,19.46,15.49,19.46a48.12,48.12,0,0,0,9.86-.77l2.56-13.31a33,33,0,0,1-5.38.51c-5.37,0-5.88-1-4.73-7l6.4-32.26h12.29l2.56-13.31H455.14l3.71-19.07H441.44l-3.71,19.07h-9.86Z"/>
    <path class="cls-2" d="M526.18,247.62c.77-5.38,2.17-12.29,2.56-14.09L535.65,198,539,181.56H522c-.51,1.92-1.15,5.51-1.92,9.22-1.79-6.53-7.29-10.75-16.77-10.75-17.79,0-29.31,15-33,33.79-3.71,19.2,1.92,35.33,20.1,35.33,8.57,0,14.84-2.43,20.73-11.26a68.32,68.32,0,0,0-1.79,9.73ZM496.1,234.81c-9.09,0-10.63-8.19-8.32-19.2,2-11.26,8.32-21,19.32-21,9.35,0,11,6.53,8.45,18.69C513.25,225.73,507.1,234.81,496.1,234.81Z"/>
    <path class="cls-2" d="M596.7,190.52c-2.3-6.65-7.8-10.49-17.28-10.49-17.53,0-29.31,14.59-32.89,32.64-3.59,18.94,2.81,34.18,21.63,34.18,7.81,0,14.21-2,19.58-9.6l-.64,2c-3.07,13.06-6.78,21.77-19.2,21.77-5.76,0-10.11-1-10.24-7.43H540.51c-1.41,13.44,9.34,20.61,26.37,20.61,22.14,0,32.51-10.24,37-32.9l8.58-44.16c.38-1.54,1.79-8.7,3.07-15.62h-16.9C598.11,183.36,597.34,186.81,596.7,190.52Zm-4.09,21.64c-2.31,12.16-7.94,20.35-19,20.35-9.08,0-11.39-7.3-9.47-17.41,1.92-10.75,8.07-20.48,19.2-20.48C593.25,194.62,594.78,201.15,592.61,212.16Z"/>
    <path class="cls-2" d="M659.68,180c-18.69,0-33.16,12.8-37.25,33.41-4.35,22,5.12,35.71,26,35.71,15,0,27.27-6.65,32.77-21.25h-17c-3.2,4.48-7.55,7.68-14.72,7.68-8.07,0-12-5.76-10.63-16h44.68c.51-2.05.89-3.84,1-4.48C688.48,193.47,680.67,180,659.68,180Zm9.34,28H641.5c2.31-7.42,8.58-14.46,17.79-14.46C667.62,193.6,670.05,198.2,669,208.06Z"/>
  </g>
  <g>
    <path class="cls-2" d="M639.62,436.3l-.09-3.37-1.17-43.74h-.85l-391.68.32-.31,44.68V435l390.74,1.25ZM440.9,433.57l-194.55.62-.1-14.26,194.88.47Zm.77-43.69-.25,14.21-195.28.31-.1-14.68Zm195.82.15-.37,13.74-194.67.32-.25-14.21Zm-.41,15.42-.35,12.91-194,.46-.24-13.68Zm-195.68-.31-.24,13.69-194.91.47-.1-14.47Zm195.27,15.73-.33,12.07L443,433.56l-.23-13.15Z"/>
    <path class="cls-2" d="M201.93,409.36c1.07,0,1.84.4,1.94,1.4h1.34c-.05-1.59-1.36-2.5-3.22-2.5s-3.14.82-3.14,2.42,1.21,1.93,3.16,2.38c1.2.27,2,.47,2,1.35s-.85,1.31-1.89,1.31A1.86,1.86,0,0,1,200,414.1H198.6c.14,1.81,1.36,2.71,3.44,2.71,1.92,0,3.35-.84,3.35-2.52,0-1.52-1.13-2.06-3.29-2.54-1.07-.24-1.85-.45-1.85-1.25S200.94,409.36,201.93,409.36Z"/>
    <rect class="cls-2" x="207.19" y="405.28" width="1.39" height="11.33"/>
    <rect class="cls-2" x="210.98" y="408.45" width="1.41" height="8.16"/>
    <rect class="cls-2" x="210.97" y="405.28" width="1.44" height="1.68"/>
    <path class="cls-2" d="M216.17,409.83c0-.45,0-1,0-1.38h-1.37c0,.58,0,1.38,0,1.76v6.41h1.39v-4.34c0-1.6.56-2.8,2-2.8,1.2,0,1.59.73,1.59,2.14v5h1.4v-4.55c0-1.52.6-2.59,2-2.59,1.09,0,1.62.72,1.62,2v5.13h1.4v-5.09c0-1.94-.73-3.27-2.62-3.27a2.58,2.58,0,0,0-2.61,1.57,2.22,2.22,0,0,0-2.32-1.57A2.56,2.56,0,0,0,216.17,409.83Z"/>
    <path class="cls-2" d="M429.31,464.28h-2.19v9.48c0,.32,0,1.09,0,1.86h2.16c0-.29,0-.71,0-1.09a2.38,2.38,0,0,0,2.34,1.28c2.35,0,3.46-2,3.46-4.47,0-2.3-1.09-4.18-3.35-4.18a2.42,2.42,0,0,0-2.43,1.36c0-.38,0-.78,0-1.16ZM431,469c1.24,0,1.78,1,1.78,2.45s-.48,2.58-1.76,2.58-1.81-1.06-1.81-2.53S429.68,469,431,469Z"/>
    <path class="cls-2" d="M444.52,471.44c0-2.53-1.44-4.28-4.07-4.28s-4.13,1.72-4.13,4.29,1.39,4.36,4.1,4.36S444.52,474.11,444.52,471.44Zm-6,0c0-1.4.51-2.5,1.86-2.5s1.84,1,1.84,2.51-.5,2.6-1.83,2.6S438.56,472.94,438.56,471.44Z"/>
    <rect class="cls-2" x="446.1" y="464.28" width="2.21" height="11.33"/>
    <path class="cls-2" d="M453.41,467.16c-2.3,0-3.52,1.83-3.52,4.41,0,2.33,1.07,4.24,3.33,4.24a2.48,2.48,0,0,0,2.48-1.4c0,.39,0,.92,0,1.21h2.14c0-.77,0-1.67,0-1.86v-9.48h-2.21v3.08c0,.38,0,.65,0,1A2.22,2.22,0,0,0,453.41,467.16Zm2.29,4.34c0,1.47-.45,2.51-1.79,2.51s-1.78-1.1-1.78-2.54.46-2.47,1.81-2.47S455.7,470,455.7,471.5Z"/>
    <path class="cls-2" d="M419.35,355.62v-4.21c0-1.56.79-2.74,2.44-2.74h.38v-1.4a2.56,2.56,0,0,0-.37,0,2.66,2.66,0,0,0-2.49,1.84c0-.45,0-1.26,0-1.65h-1.38c0,.58,0,1.38,0,1.76v6.41Z"/>
    <path class="cls-2" d="M430.46,351.42c0-2.48-1.2-4.16-3.63-4.16S423,349.07,423,351.6s1.39,4.21,3.74,4.21a3.36,3.36,0,0,0,3.62-2.66H429a2,2,0,0,1-2.15,1.49c-1.55,0-2.29-1.15-2.35-2.79h6Zm-6-.65a2.26,2.26,0,0,1,2.31-2.34c1.47,0,2.16.85,2.24,2.34Z"/>
    <path class="cls-2" d="M435.55,357.81c-1.12,0-1.83-.37-2.07-1.33h-1.41c.18,1.65,1.54,2.5,3.44,2.5,2.6,0,3.85-1.51,3.85-4.34v-5.43c0-.38,0-1.18,0-1.76H438c0,.39,0,.91,0,1.38a2.53,2.53,0,0,0-2.6-1.57c-2.19,0-3.52,1.81-3.52,4.27s1.23,4,3.43,4a2.6,2.6,0,0,0,2.65-1.51v.58C438,356.59,437.5,357.81,435.55,357.81Zm.06-3.4c-1.47,0-2.26-1.16-2.26-2.84s.71-3.11,2.36-3.11,2.29,1.17,2.29,3S437.29,354.41,435.61,354.41Z"/>
    <path class="cls-2" d="M441.77,347.45v5.09c0,2,.83,3.27,2.77,3.27a2.55,2.55,0,0,0,2.61-1.65c0,.45,0,1.07,0,1.46h1.36c0-.58,0-1.48,0-1.86v-6.31h-1.43v4c0,1.84-.49,3.1-2.17,3.1-1.24,0-1.72-.82-1.72-2.19v-4.95Z"/>
    <rect class="cls-2" x="450.97" y="344.28" width="1.41" height="11.33"/>
    <path class="cls-2" d="M458.41,350.73c-2.74,0-4.13.8-4.13,2.69a2.45,2.45,0,0,0,2.74,2.39,3,3,0,0,0,2.9-1.57,6.71,6.71,0,0,0,.16,1.38h1.34c0-.25-.16-1.35-.16-1.73V350c0-1.91-1.14-2.77-3.28-2.77-1.84,0-3.19.77-3.27,2.56h1.36c.13-1,.8-1.44,1.88-1.44s1.92.4,1.92,1.52v.85C459.53,350.73,458.54,350.73,458.41,350.73Zm1.47,1.08V352a2.41,2.41,0,0,1-2.49,2.71c-.9,0-1.67-.42-1.67-1.35,0-1.26,1.17-1.57,2.9-1.57C459,351.77,459.43,351.79,459.88,351.81Z"/>
    <path class="cls-2" d="M465.1,355.62v-4.21c0-1.56.78-2.74,2.43-2.74h.38v-1.4a2.49,2.49,0,0,0-.36,0,2.67,2.67,0,0,0-2.5,1.84c0-.45,0-1.26,0-1.65h-1.37c0,.58,0,1.38,0,1.76v6.41Z"/>
    <path class="cls-2" d="M191.94,349.1c0-.45,0-1.26,0-1.65h-1.38c0,.58,0,1.38,0,1.76v6.41H192v-4.21c0-1.56.79-2.74,2.44-2.74h.38v-1.4a2.56,2.56,0,0,0-.37,0A2.68,2.68,0,0,0,191.94,349.1Z"/>
    <path class="cls-2" d="M199.53,347.26c-2.51,0-3.91,1.81-3.91,4.32s1.33,4.23,3.81,4.23,3.92-1.76,3.92-4.37S202,347.26,199.53,347.26Zm0,7.36c-1.65,0-2.42-1.31-2.42-3.05s.7-3.13,2.4-3.13,2.43,1.28,2.43,3S201.23,354.62,199.5,354.62Z"/>
    <path class="cls-2" d="M214.11,347.26a2.6,2.6,0,0,0-2.63,1.57,2.22,2.22,0,0,0-2.34-1.57,2.58,2.58,0,0,0-2.49,1.57c0-.45,0-1,0-1.38h-1.39c0,.58,0,1.38,0,1.76v6.41h1.4v-4.34c0-1.6.58-2.8,2-2.8,1.2,0,1.58.73,1.58,2.14v5h1.43v-4.55c0-1.52.59-2.59,2-2.59,1.09,0,1.61.72,1.61,2v5.13h1.43v-5.09C216.75,348.59,216,347.26,214.11,347.26Z"/>
    <path class="cls-2" d="M222.73,350.73c-2.74,0-4.13.8-4.13,2.69a2.45,2.45,0,0,0,2.74,2.39,3,3,0,0,0,2.89-1.57,7.49,7.49,0,0,0,.16,1.38h1.35c0-.25-.16-1.35-.16-1.73V350c0-1.91-1.14-2.77-3.28-2.77-1.84,0-3.19.77-3.27,2.56h1.36c.13-1,.8-1.44,1.87-1.44s1.92.4,1.92,1.52v.85C223.85,350.73,222.86,350.73,222.73,350.73Zm1.47,1.08V352a2.41,2.41,0,0,1-2.5,2.71c-.89,0-1.66-.42-1.66-1.35,0-1.26,1.17-1.57,2.9-1.57C223.32,351.77,223.75,351.79,224.2,351.81Z"/>
    <path class="cls-2" d="M234.84,355.62v-5c0-2-.73-3.38-2.78-3.38a2.7,2.7,0,0,0-2.69,1.58c0-.44,0-1,0-1.39H228c0,.58,0,1.38,0,1.76v6.41h1.41v-4.23c0-1.78.62-2.91,2.24-2.91,1.28,0,1.76.8,1.76,2.27v4.87Z"/>
    <polygon class="cls-2" points="649.19 355.62 650.62 355.62 652.2 347.45 650.78 347.45 649.19 355.62"/>
    <polygon class="cls-2" points="652.84 344.28 651.38 344.28 651.05 345.96 652.5 345.96 652.84 344.28"/>
    <path class="cls-2" d="M655.59,345.05l-.48,2.47H653.7l-.22,1.13h1.39l-.91,4.68c-.29,1.53,0,2.43,1.52,2.43a4.94,4.94,0,0,0,1.12-.11l.24-1.15a5.56,5.56,0,0,1-.82.08c-.78,0-.83-.36-.65-1.24l.91-4.69H658l.22-1.13h-1.74l.48-2.47Z"/>
    <path class="cls-2" d="M665,348.83a2,2,0,0,0-2.29-1.57c-2.24,0-3.84,1.9-4.29,4.24s.43,4.31,2.61,4.31a3.27,3.27,0,0,0,2.93-1.57,14,14,0,0,0-.24,1.38h1.36c0-.49.22-1.43.3-1.8l.9-4.54.37-1.83h-1.38C665.21,347.77,665.1,348.32,665,348.83Zm-.5,2.53c-.37,1.87-1.34,3.25-3,3.25-1.47,0-1.94-1.28-1.6-2.95s1.38-3.2,3-3.2S664.86,349.61,664.52,351.36Z"/>
    <polygon class="cls-2" points="671.15 344.28 669.74 344.28 667.53 355.62 668.94 355.62 671.15 344.28"/>
    <polygon class="cls-2" points="671.4 355.62 672.82 355.62 674.41 347.45 672.98 347.45 671.4 355.62"/>
    <polygon class="cls-2" points="673.26 345.96 674.71 345.96 675.05 344.28 673.59 344.28 673.26 345.96"/>
    <path class="cls-2" d="M679.8,348.46c1.15,0,1.75.53,1.67,1.68h1.34c.21-1.76-1-2.88-2.88-2.88-2.42,0-4.07,1.78-4.56,4.24s.46,4.31,3,4.31a3.94,3.94,0,0,0,4-2.93h-1.39a2.66,2.66,0,0,1-2.49,1.74c-1.54,0-2-1.25-1.62-2.89S678.15,348.46,679.8,348.46Z"/>
    <path class="cls-2" d="M655.68,410.69c0,1.46,1.18,1.91,3.18,2.37,1.22.29,2,.48,2,1.33S660,415.7,659,415.7c-1.22,0-2-.49-2.16-1.61h-1.38c.16,1.82,1.4,2.72,3.48,2.72,1.92,0,3.37-.82,3.37-2.52,0-1.53-1.15-2.06-3.31-2.54-1.07-.24-1.87-.43-1.87-1.25s.73-1.14,1.7-1.14,1.87.4,2,1.4h1.35c-.05-1.59-1.39-2.5-3.25-2.5S655.68,409.06,655.68,410.69Z"/>
    <path class="cls-2" d="M663.71,412.6c0,2.48,1.39,4.21,3.75,4.21a3.35,3.35,0,0,0,3.61-2.66h-1.39a2,2,0,0,1-2.14,1.49c-1.56,0-2.29-1.15-2.36-2.79h6v-.43c0-2.48-1.2-4.16-3.64-4.16S663.71,410.07,663.71,412.6Zm3.81-3.17c1.47,0,2.16.85,2.24,2.34h-4.54A2.25,2.25,0,0,1,667.52,409.43Z"/>
    <path class="cls-2" d="M674.75,406.05h-1.39v2.47H672v1.13h1.37v4.74c0,1.54.39,2.37,1.89,2.37a4.57,4.57,0,0,0,1.22-.14v-1.11a3.49,3.49,0,0,1-.71.07c-.83,0-1-.42-1-1.3v-4.63h1.76v-1.13h-1.76Z"/>
    <rect class="cls-2" x="242.49" y="431.17" width="6.89" height="6.89"/>
  </g>
</svg>
