<svg id="Layer_1" data-name="Layer 1" xmlns="http://www.w3.org/2000/svg" viewBox="0 0 874.01 617.95">
  <defs>
    <style>
      .cls-1 {
        fill: #474849;
      }

      .cls-2 {
        fill: #fff;
      }
    </style>
  </defs>
  <title>DropperTypefaceAnimation</title>
  <rect class="cls-1" x="-0.31" y="-0.01" width="874" height="617.98"/>
  <g>
    <path class="cls-2" d="M205.3,213.31c2-10.5,7.68-18.82,17.79-18.82,7.94,0,9,4.74,7.3,13.7l-7.81,39.43h17.67l7.55-38.28C251.25,191.8,247.67,180,230,180c-8.32,0-15.36,3.07-20.86,11.52a76.53,76.53,0,0,0,2.18-9.22l5-25.34H198.64l-17.79,90.63h17.67Z"/>
    <path class="cls-2" d="M323.45,219.58c.51-2.05.89-3.84,1-4.48,4-21.76-4.22-35.07-25.35-35.07-19.07,0-33.66,12.67-37.76,33.28-4.35,22.27,5.25,35.84,26.5,35.84,15.74,0,27.78-6.78,33.28-21.38H304c-3.07,4.48-7.68,7.68-15,7.68-8.45,0-12.54-5.63-11.13-15.87Zm-24.71-25.86c8.45,0,11.26,4.23,10.11,14.21H280.56C282.87,200.38,289.14,193.72,298.74,193.72Z"/>
    <path class="cls-2" d="M345.07,181.56c-.89,5.38-2.17,11.78-2.68,14.08l-10.24,52h17.66L356,216.77c2.44-13.06,9.6-19.33,22.79-19.33a12.81,12.81,0,0,1,2.43,0L383.48,180c-1.28,0-3.33,0-5,.13-7.81.76-13.18,4-18.81,13.18.64-2.69,1.79-8.7,2.3-11.78Z"/>
    <polygon class="cls-2" points="384.63 247.62 402.55 247.62 415.47 181.56 397.55 181.56 384.63 247.62"/>
    <polygon class="cls-2" points="399.09 172.6 417.27 172.6 420.34 156.99 402.16 156.99 399.09 172.6"/>
    <path class="cls-2" d="M424.94,195.64h10.25l-6.53,33c-2.56,13.44,2.43,19.84,15.87,19.84a51.22,51.22,0,0,0,9.86-.77l2.68-13.44a34.36,34.36,0,0,1-5.37.51c-5.76,0-6.27-.89-5.12-7.16l6.4-32h12.8l2.56-13.31h-12.8l3.71-19.07H441.59l-3.72,19.07H427.5Z"/>
    <path class="cls-2" d="M529,247.62c.77-5.38,2.18-12.29,2.56-14.09L538.48,198l3.33-16.39H524.66c-.51,1.92-1.15,5.51-1.92,9.22-1.92-6.53-7.55-10.75-17.28-10.75-17.41,0-29.83,14.85-33.41,33.54-3.72,19.45,2.17,35.58,20.35,35.58,9.09,0,15.23-2.43,21.25-11.26a59.38,59.38,0,0,0-1.79,9.73Zm-30.72-12.93c-9.09,0-11.14-8.2-8.71-18.95,2.44-11.78,8.58-21,19.59-21,9.09,0,11.52,6.78,9,18.43C515.83,225.6,509.68,234.69,498.29,234.69Z"/>
    <path class="cls-2" d="M601.33,190.52C599,183.87,592.75,180,583.79,180c-17.41,0-29.82,14.59-33.28,32.26-3.58,19.07,3.33,34.56,21.89,34.56,7.55,0,14.85-2,20.1-9.6L592,239c-3.2,13.31-6.91,21.89-19.84,21.89-6.4,0-10.37-1-10.49-7.43H544.24c-1.67,13.57,9.6,20.74,26.88,20.74,22.27,0,33.28-10.11,37.76-33.15l8.58-43.91c.38-1.54,1.79-8.7,3.07-15.62H603.38C602.86,183.36,602,187.07,601.33,190.52Zm-4,21.51c-2.3,12-8.45,20.35-19.33,20.35-9,0-11.78-7.55-9.86-17.15,2.05-10.88,8.71-20.48,19.59-20.48C597,194.75,599.66,200.76,597.36,212Z"/>
    <path class="cls-2" d="M666.22,180c-19.07,0-33.66,12.67-37.76,33.28-4.35,22.27,5.25,35.84,26.5,35.84,15.74,0,27.77-6.78,33.28-21.38H671.09c-3.08,4.48-7.68,7.68-15,7.68-8.45,0-12.55-5.63-11.14-15.87h45.57c.52-2.05.9-3.84,1-4.48C695.54,193.34,687.34,180,666.22,180Zm9.73,27.9H647.66c2.3-7.55,8.58-14.21,18.18-14.21C674.29,193.72,677.1,198,676,207.93Z"/>
  </g>
  <g>
    <path class="cls-2" d="M639.62,436.3l-.09-3.37-1.17-43.74h-.85l-391.68.32-.31,44.68V435l390.74,1.25ZM440.9,433.57l-194.55.62-.1-14.26,194.88.47Zm.77-43.69-.25,14.21-195.28.31-.1-14.68Zm195.82.15-.37,13.74-194.67.32-.25-14.21Zm-.41,15.42-.35,12.91-194,.46-.24-13.68Zm-195.68-.31-.24,13.69-194.91.47-.1-14.47Zm195.27,15.73-.33,12.07L443,433.56l-.23-13.15Z"/>
    <path class="cls-2" d="M202.09,415.72A1.86,1.86,0,0,1,200,414.1H198.6c.14,1.81,1.36,2.71,3.44,2.71,1.92,0,3.35-.84,3.35-2.52,0-1.52-1.12-2.06-3.29-2.54-1.07-.24-1.85-.45-1.85-1.25s.69-1.14,1.68-1.14,1.84.4,1.94,1.4h1.34c-.05-1.59-1.36-2.5-3.22-2.5s-3.14.82-3.14,2.42,1.21,1.93,3.16,2.38c1.2.27,2,.47,2,1.35S203.13,415.72,202.09,415.72Z"/>
    <rect class="cls-2" x="207.19" y="405.28" width="1.39" height="11.33"/>
    <rect class="cls-2" x="210.98" y="408.45" width="1.41" height="8.16"/>
    <rect class="cls-2" x="210.97" y="405.28" width="1.44" height="1.68"/>
    <path class="cls-2" d="M226.2,416.62v-5.09c0-1.94-.73-3.27-2.62-3.27a2.58,2.58,0,0,0-2.61,1.57,2.22,2.22,0,0,0-2.32-1.57,2.56,2.56,0,0,0-2.48,1.57c0-.45,0-1,0-1.38h-1.37c0,.58,0,1.38,0,1.76v6.41h1.39v-4.34c0-1.6.56-2.8,2-2.8,1.2,0,1.59.73,1.59,2.14v5h1.4v-4.55c0-1.52.6-2.59,2-2.59,1.09,0,1.62.72,1.62,2v5.13Z"/>
    <path class="cls-2" d="M429.31,464.28h-2.19v9.48c0,.32,0,1.09,0,1.86h2.16c0-.29,0-.71,0-1.09a2.39,2.39,0,0,0,2.34,1.28c2.35,0,3.46-2,3.46-4.47,0-2.3-1.09-4.18-3.35-4.18a2.42,2.42,0,0,0-2.43,1.36c0-.38,0-.78,0-1.16ZM431,469c1.24,0,1.78,1,1.78,2.45s-.48,2.58-1.76,2.58-1.81-1.06-1.81-2.53S429.68,469,431,469Z"/>
    <path class="cls-2" d="M444.52,471.44c0-2.53-1.44-4.28-4.07-4.28s-4.13,1.72-4.13,4.29,1.39,4.36,4.1,4.36S444.52,474.11,444.52,471.44Zm-6,0c0-1.4.51-2.5,1.86-2.5s1.84,1,1.84,2.51-.5,2.6-1.82,2.6S438.56,472.94,438.56,471.44Z"/>
    <rect class="cls-2" x="446.1" y="464.28" width="2.21" height="11.33"/>
    <path class="cls-2" d="M453.41,467.16c-2.3,0-3.52,1.83-3.52,4.41,0,2.33,1.07,4.24,3.33,4.24a2.48,2.48,0,0,0,2.48-1.4c0,.39,0,.92,0,1.21h2.14c0-.77,0-1.67,0-1.86v-9.48h-2.2v3.08c0,.38,0,.65,0,1A2.22,2.22,0,0,0,453.41,467.16Zm2.29,4.34c0,1.47-.45,2.51-1.79,2.51s-1.78-1.1-1.78-2.54.46-2.47,1.81-2.47S455.7,470,455.7,471.5Z"/>
    <path class="cls-2" d="M419.35,355.62v-4.21c0-1.56.79-2.74,2.44-2.74h.38v-1.4a2.56,2.56,0,0,0-.37,0,2.66,2.66,0,0,0-2.49,1.84c0-.45,0-1.26,0-1.65h-1.38c0,.58,0,1.38,0,1.76v6.41Z"/>
    <path class="cls-2" d="M423,351.6c0,2.48,1.39,4.21,3.74,4.21a3.36,3.36,0,0,0,3.62-2.66H429a2,2,0,0,1-2.15,1.49c-1.55,0-2.29-1.15-2.35-2.79h6v-.43c0-2.48-1.2-4.16-3.63-4.16S423,349.07,423,351.6Zm6.05-.83h-4.55a2.26,2.26,0,0,1,2.31-2.34C428.27,348.43,429,349.28,429,350.77Z"/>
    <path class="cls-2" d="M435.55,357.81c-1.12,0-1.83-.37-2.07-1.33h-1.41c.18,1.65,1.54,2.5,3.44,2.5,2.6,0,3.85-1.51,3.85-4.34v-5.43c0-.38,0-1.18,0-1.76H438c0,.39,0,.91,0,1.38a2.53,2.53,0,0,0-2.6-1.57c-2.19,0-3.52,1.81-3.52,4.27s1.23,4,3.43,4a2.6,2.6,0,0,0,2.65-1.51v.58C438,356.59,437.5,357.81,435.55,357.81Zm.06-3.4c-1.47,0-2.26-1.16-2.26-2.84s.71-3.11,2.36-3.11,2.29,1.17,2.29,3S437.29,354.41,435.61,354.41Z"/>
    <path class="cls-2" d="M441.77,347.45v5.09c0,2,.83,3.27,2.77,3.27a2.55,2.55,0,0,0,2.61-1.65c0,.45,0,1.07,0,1.46h1.36c0-.58,0-1.48,0-1.86v-6.31h-1.43v4c0,1.84-.49,3.1-2.17,3.1-1.24,0-1.72-.82-1.72-2.19v-4.95Z"/>
    <rect class="cls-2" x="450.97" y="344.28" width="1.41" height="11.33"/>
    <path class="cls-2" d="M458.41,350.73c-2.74,0-4.13.8-4.13,2.69a2.45,2.45,0,0,0,2.74,2.39,3,3,0,0,0,2.9-1.57,6.71,6.71,0,0,0,.16,1.38h1.34c0-.25-.16-1.35-.16-1.73V350c0-1.91-1.14-2.77-3.28-2.77-1.84,0-3.19.77-3.27,2.56h1.36c.13-1,.8-1.44,1.88-1.44s1.92.4,1.92,1.52v.85C459.53,350.73,458.54,350.73,458.41,350.73Zm1.47,1.08V352a2.41,2.41,0,0,1-2.49,2.71c-.9,0-1.67-.42-1.67-1.35,0-1.26,1.17-1.57,2.9-1.57C459,351.77,459.44,351.79,459.88,351.81Z"/>
    <path class="cls-2" d="M465.1,355.62v-4.21c0-1.56.78-2.74,2.43-2.74h.38v-1.4a2.49,2.49,0,0,0-.36,0,2.67,2.67,0,0,0-2.5,1.84c0-.45,0-1.26,0-1.65h-1.37c0,.58,0,1.38,0,1.76v6.41Z"/>
    <path class="cls-2" d="M192,355.62v-4.21c0-1.56.79-2.74,2.43-2.74h.39v-1.4a2.56,2.56,0,0,0-.37,0,2.68,2.68,0,0,0-2.5,1.84c0-.45,0-1.26,0-1.65h-1.38c0,.58,0,1.38,0,1.76v6.41Z"/>
    <path class="cls-2" d="M203.35,351.44c0-2.47-1.37-4.18-3.82-4.18s-3.91,1.81-3.91,4.32,1.33,4.23,3.81,4.23S203.35,354.05,203.35,351.44Zm-6.27.13c0-1.72.7-3.13,2.4-3.13s2.43,1.28,2.43,3-.68,3.15-2.41,3.15S197.08,353.31,197.08,351.57Z"/>
    <path class="cls-2" d="M213.71,348.48c1.09,0,1.61.72,1.61,2v5.13h1.43v-5.09c0-1.94-.74-3.27-2.64-3.27a2.6,2.6,0,0,0-2.63,1.57,2.22,2.22,0,0,0-2.34-1.57,2.58,2.58,0,0,0-2.49,1.57c0-.45,0-1,0-1.38h-1.39c0,.58,0,1.38,0,1.76v6.41h1.4v-4.34c0-1.6.58-2.8,2-2.8,1.2,0,1.58.73,1.58,2.14v5h1.43v-4.55C211.71,349.55,212.3,348.48,213.71,348.48Z"/>
    <path class="cls-2" d="M222.73,350.73c-2.74,0-4.13.8-4.13,2.69a2.45,2.45,0,0,0,2.74,2.39,3,3,0,0,0,2.89-1.57,7.49,7.49,0,0,0,.16,1.38h1.35c0-.25-.16-1.35-.16-1.73V350c0-1.91-1.14-2.77-3.28-2.77-1.84,0-3.19.77-3.27,2.56h1.36c.13-1,.8-1.44,1.87-1.44s1.93.4,1.93,1.52v.85C223.85,350.73,222.86,350.73,222.73,350.73Zm1.47,1.08V352a2.41,2.41,0,0,1-2.5,2.71c-.89,0-1.66-.42-1.66-1.35,0-1.26,1.17-1.57,2.9-1.57C223.32,351.77,223.75,351.79,224.2,351.81Z"/>
    <path class="cls-2" d="M234.84,355.62v-5c0-2-.73-3.38-2.78-3.38a2.7,2.7,0,0,0-2.69,1.58c0-.44,0-1,0-1.39H228c0,.58,0,1.38,0,1.76v6.41h1.41v-4.23c0-1.78.62-2.91,2.24-2.91,1.28,0,1.76.8,1.76,2.27v4.87Z"/>
    <polygon class="cls-2" points="649.19 355.62 650.62 355.62 652.2 347.45 650.78 347.45 649.19 355.62"/>
    <polygon class="cls-2" points="652.84 344.28 651.38 344.28 651.05 345.96 652.5 345.96 652.84 344.28"/>
    <path class="cls-2" d="M655.59,345.05l-.48,2.47H653.7l-.22,1.13h1.39l-.91,4.68c-.29,1.53,0,2.43,1.52,2.43a4.94,4.94,0,0,0,1.12-.11l.24-1.15a5.56,5.56,0,0,1-.82.08c-.78,0-.83-.36-.65-1.24l.91-4.69H658l.22-1.13H656.5l.49-2.47Z"/>
    <path class="cls-2" d="M665,348.83a2,2,0,0,0-2.29-1.57c-2.24,0-3.84,1.9-4.29,4.24s.43,4.31,2.61,4.31a3.27,3.27,0,0,0,2.93-1.57,14,14,0,0,0-.24,1.38h1.36c0-.49.22-1.43.3-1.8l.9-4.54.37-1.83h-1.38C665.21,347.77,665.1,348.32,665,348.83Zm-.5,2.53c-.37,1.87-1.34,3.25-3,3.25-1.47,0-1.94-1.28-1.6-2.95s1.38-3.2,3-3.2S664.86,349.61,664.52,351.36Z"/>
    <polygon class="cls-2" points="671.14 344.28 669.74 344.28 667.53 355.62 668.94 355.62 671.14 344.28"/>
    <polygon class="cls-2" points="673.26 345.96 674.71 345.96 675.05 344.28 673.59 344.28 673.26 345.96"/>
    <polygon class="cls-2" points="671.4 355.62 672.82 355.62 674.41 347.45 672.98 347.45 671.4 355.62"/>
    <path class="cls-2" d="M679.8,348.46c1.15,0,1.75.53,1.67,1.68h1.34c.21-1.76-1-2.88-2.88-2.88-2.42,0-4.07,1.78-4.56,4.24s.46,4.31,3,4.31a3.94,3.94,0,0,0,4-2.93h-1.39a2.66,2.66,0,0,1-2.5,1.74c-1.53,0-1.95-1.25-1.61-2.89S678.15,348.46,679.8,348.46Z"/>
    <path class="cls-2" d="M655.68,410.69c0,1.46,1.18,1.91,3.18,2.37,1.22.29,2,.48,2,1.33S660,415.7,659,415.7c-1.22,0-2-.49-2.16-1.61h-1.38c.16,1.82,1.4,2.72,3.48,2.72,1.92,0,3.37-.82,3.37-2.52,0-1.53-1.15-2.06-3.31-2.54-1.07-.24-1.87-.43-1.87-1.25s.73-1.14,1.7-1.14,1.87.4,2,1.4h1.35c-.05-1.59-1.39-2.5-3.25-2.5S655.68,409.06,655.68,410.69Z"/>
    <path class="cls-2" d="M663.71,412.6c0,2.48,1.39,4.21,3.75,4.21a3.35,3.35,0,0,0,3.61-2.66h-1.39a2,2,0,0,1-2.14,1.49c-1.56,0-2.29-1.15-2.36-2.79h6v-.43c0-2.48-1.2-4.16-3.64-4.16S663.71,410.07,663.71,412.6Zm3.81-3.17c1.47,0,2.16.85,2.24,2.34h-4.54A2.25,2.25,0,0,1,667.52,409.43Z"/>
    <path class="cls-2" d="M674.75,406.05h-1.39v2.47H672v1.13h1.37v4.74c0,1.54.39,2.37,1.89,2.37a4.62,4.62,0,0,0,1.22-.14v-1.11a3.49,3.49,0,0,1-.71.07c-.83,0-1-.42-1-1.3v-4.63h1.76v-1.13h-1.76Z"/>
    <rect class="cls-2" x="634.49" y="431.17" width="6.89" height="6.89"/>
  </g>
</svg>
