<svg id="Layer_1" data-name="Layer 1" xmlns="http://www.w3.org/2000/svg" viewBox="0 0 874.01 617.95">
  <defs>
    <style>
      .cls-1 {
        fill: #474849;
      }

      .cls-2 {
        fill: #fff;
      }
    </style>
  </defs>
  <title>DropperTypefaceAnimation</title>
  <rect class="cls-1" x="-0.31" y="-0.01" width="874" height="617.98"/>
  <g>
    <path class="cls-2" d="M199.06,247.62h13.19v-35c0-12.54,4.22-20.87,15.87-20.87,9.86,0,13.19,6.28,13.19,17.16v38.66h13.31V208.19c0-16.64-5.76-27.65-22.15-27.65-9.85,0-15.87,3.33-20.35,12,.13-3.07.13-7.42.13-10.49V157H199.06Z"/>
    <path class="cls-2" d="M330.27,214.21c0-20.36-9.73-33.67-29.45-33.67-19.32,0-30.85,14.21-30.85,34.69s11.14,33.92,30.34,33.92c15.23,0,26.24-7.55,29.06-21.12H316.31c-2.3,7.17-7.29,10.5-15.36,10.5-11,0-16.89-8.45-17.41-20.36h46.73Zm-46.47-5.64c.77-9.85,6.4-17.28,16.9-17.28,10.75,0,15.61,6.27,16.25,17.28Z"/>
    <path class="cls-2" d="M358.93,247.62v-33c0-12.55,5.89-20.74,18.82-20.74a29.13,29.13,0,0,1,2.95.13V180.67a15.35,15.35,0,0,0-3.46,0c-8.71.25-15.62,5.76-18.82,14.08,0-3.46,0-9.86-.13-12.67h-12.8c.13,5.12.13,11.77.13,14.33v51.21Z"/>
    <rect class="cls-2" x="394.13" y="156.99" width="13.57" height="14.08"/>
    <rect class="cls-2" x="394.26" y="182.08" width="13.31" height="65.54"/>
    <path class="cls-2" d="M419.73,193.21H430.1V230c0,12.16,3.58,18.69,16,18.69,2.94,0,7.68-.26,10.11-1V237.5a37.31,37.31,0,0,1-5.37.39c-6.15,0-7.43-2.82-7.43-9.48v-35.2h13.32V182.72H443.41V163.13H430.23v19.59h-10.5Z"/>
    <path class="cls-2" d="M499.73,208.06C479,207.93,466.58,214,466.58,230c0,11.65,8.7,19.2,21.5,19.2,9.6,0,17.92-3.33,22.15-11.9a57.14,57.14,0,0,0,1.15,10.37h12.55c-.52-3.33-1.16-11.27-1.16-13.83V203.45c0-15.87-8.83-22.91-26.37-22.91-15,0-25.85,6.27-26.62,21h12.8c.89-7.55,5.63-10.62,13.44-10.62s13.57,2.81,13.57,11v6.27C507,208.06,501,208.06,499.73,208.06Zm10.11,9.6v1.28c0,9.47-4.35,20-18,20-6.4,0-11.78-2.94-11.78-9.86,0-9.47,8.83-11.64,21.89-11.64C504.21,217.41,506.77,217.53,509.84,217.66Z"/>
    <path class="cls-2" d="M567.83,263.74c-7.81,0-13.44-2.56-15.11-9.6l-13.31.13c1.54,13.44,12.42,20.1,28,20.1,21.38,0,30.85-11.78,30.85-34.18V196.41c0-2.56,0-9.21.13-14.33h-12.8c-.13,2.81-.13,6.78-.13,10.36-3.58-8.32-9.85-11.9-19.84-11.9C548,180.54,538,195.26,538,214.72c0,18.81,9.22,32.38,27,32.38,9.47,0,16.13-3.07,20.23-11.39v4.22C585.24,254.66,582,263.74,567.83,263.74Zm.51-27.52c-11,0-16.64-8.83-16.64-21.5,0-12.42,4.73-22.92,17.15-22.92s16.64,8.84,16.64,22.15C585.49,227,580.88,236.22,568.34,236.22Z"/>
    <path class="cls-2" d="M614,215.23c0,20.35,11.14,33.92,30.34,33.92,15.23,0,26.24-7.55,29.06-21.12H660.37c-2.3,7.17-7.3,10.5-15.36,10.5-11,0-16.9-8.45-17.41-20.36h46.72v-4c0-20.36-9.73-33.67-29.44-33.67C625.55,180.54,614,194.75,614,215.23Zm30.72-23.94c10.76,0,15.62,6.27,16.26,17.28H627.86C628.62,198.72,634.26,191.29,644.75,191.29Z"/>
  </g>
  <g>
    <path class="cls-2" d="M639.62,436.3l-.09-3.37-1.17-43.74h-.85l-391.68.32-.31,44.68V435l390.74,1.25ZM440.9,433.57l-194.55.62-.1-14.26,194.88.47Zm.77-43.69-.25,14.21-195.28.31-.1-14.68Zm195.82.16-.37,13.73-194.67.32-.25-14.21Zm-.41,15.42-.35,12.9-194,.46-.24-13.68Zm-195.68-.32-.24,13.69-194.91.47-.1-14.47Zm195.27,15.73-.33,12.07L443,433.56l-.23-13.15Z"/>
    <path class="cls-2" d="M202.09,415.72A1.86,1.86,0,0,1,200,414.1H198.6c.14,1.81,1.36,2.71,3.44,2.71,1.92,0,3.35-.84,3.35-2.52,0-1.52-1.12-2.06-3.29-2.54-1.07-.24-1.85-.45-1.85-1.25s.69-1.14,1.68-1.14,1.84.4,1.94,1.4h1.34c-.05-1.59-1.36-2.5-3.22-2.5s-3.14.82-3.14,2.42,1.21,1.93,3.16,2.38c1.2.27,2,.47,2,1.35S203.13,415.72,202.09,415.72Z"/>
    <rect class="cls-2" x="207.19" y="405.28" width="1.39" height="11.33"/>
    <rect class="cls-2" x="210.97" y="405.28" width="1.44" height="1.68"/>
    <rect class="cls-2" x="210.98" y="408.45" width="1.41" height="8.16"/>
    <path class="cls-2" d="M226.2,416.62v-5.09c0-1.94-.73-3.27-2.62-3.27a2.58,2.58,0,0,0-2.61,1.57,2.22,2.22,0,0,0-2.32-1.57,2.56,2.56,0,0,0-2.48,1.57c0-.45,0-1,0-1.38h-1.37c0,.58,0,1.38,0,1.76v6.41h1.39v-4.34c0-1.6.56-2.8,2-2.8,1.2,0,1.59.73,1.59,2.14v5h1.4v-4.55c0-1.52.6-2.59,2-2.59,1.09,0,1.62.72,1.62,2v5.13Z"/>
    <path class="cls-2" d="M429.31,464.28h-2.19v9.48c0,.32,0,1.09,0,1.86h2.16c0-.29,0-.71,0-1.09a2.39,2.39,0,0,0,2.34,1.28c2.35,0,3.46-2,3.46-4.47,0-2.3-1.09-4.18-3.35-4.18a2.42,2.42,0,0,0-2.43,1.36c0-.38,0-.78,0-1.16ZM431,469c1.24,0,1.78,1,1.78,2.45s-.48,2.58-1.76,2.58-1.81-1.06-1.81-2.53S429.68,469,431,469Z"/>
    <path class="cls-2" d="M444.52,471.44c0-2.53-1.44-4.28-4.07-4.28s-4.13,1.72-4.13,4.29,1.39,4.36,4.1,4.36S444.52,474.11,444.52,471.44Zm-6,0c0-1.4.51-2.5,1.86-2.5s1.84,1,1.84,2.51-.5,2.6-1.82,2.6S438.56,472.94,438.56,471.44Z"/>
    <rect class="cls-2" x="446.1" y="464.28" width="2.21" height="11.33"/>
    <path class="cls-2" d="M453.41,467.16c-2.3,0-3.52,1.83-3.52,4.41,0,2.33,1.07,4.24,3.33,4.24a2.49,2.49,0,0,0,2.48-1.39c0,.38,0,.91,0,1.2h2.14c0-.77,0-1.67,0-1.86v-9.48h-2.2v3.08c0,.38,0,.65,0,1A2.22,2.22,0,0,0,453.41,467.16Zm2.29,4.34c0,1.47-.45,2.51-1.79,2.51s-1.78-1.1-1.78-2.54.46-2.47,1.81-2.47S455.7,470,455.7,471.5Z"/>
    <path class="cls-2" d="M419.35,355.62v-4.21c0-1.56.79-2.74,2.44-2.74h.38v-1.4a2.56,2.56,0,0,0-.37,0,2.66,2.66,0,0,0-2.49,1.84c0-.45,0-1.26,0-1.65h-1.38c0,.58,0,1.38,0,1.76v6.41Z"/>
    <path class="cls-2" d="M423,351.6c0,2.48,1.39,4.21,3.74,4.21a3.36,3.36,0,0,0,3.62-2.66H429a2,2,0,0,1-2.15,1.49c-1.55,0-2.29-1.15-2.35-2.79h6v-.43c0-2.48-1.2-4.16-3.63-4.16S423,349.07,423,351.6Zm6.05-.83h-4.55a2.26,2.26,0,0,1,2.31-2.34C428.27,348.43,429,349.28,429,350.77Z"/>
    <path class="cls-2" d="M435.55,357.81c-1.12,0-1.83-.37-2.07-1.33h-1.41c.18,1.65,1.54,2.5,3.44,2.5,2.6,0,3.85-1.51,3.85-4.34v-5.43c0-.38,0-1.18,0-1.76H438c0,.39,0,.91,0,1.38a2.53,2.53,0,0,0-2.6-1.57c-2.19,0-3.52,1.81-3.52,4.27s1.23,4,3.43,4a2.6,2.6,0,0,0,2.65-1.51v.58C438,356.59,437.5,357.81,435.55,357.81Zm.06-3.39c-1.47,0-2.26-1.17-2.26-2.85s.71-3.11,2.36-3.11,2.29,1.17,2.29,3S437.29,354.42,435.61,354.42Z"/>
    <path class="cls-2" d="M441.77,347.45v5.09c0,2,.83,3.27,2.77,3.27a2.55,2.55,0,0,0,2.61-1.65c0,.45,0,1.07,0,1.46h1.36c0-.58,0-1.48,0-1.86v-6.31h-1.43v4c0,1.84-.49,3.1-2.17,3.1-1.24,0-1.72-.82-1.72-2.19v-4.95Z"/>
    <rect class="cls-2" x="450.97" y="344.28" width="1.41" height="11.33"/>
    <path class="cls-2" d="M458.41,350.73c-2.74,0-4.13.8-4.13,2.69a2.45,2.45,0,0,0,2.74,2.39,3,3,0,0,0,2.9-1.57,6.71,6.71,0,0,0,.16,1.38h1.34c0-.24-.16-1.35-.16-1.73V350c0-1.91-1.14-2.77-3.28-2.77-1.84,0-3.19.77-3.27,2.56h1.36c.13-1,.8-1.44,1.88-1.44s1.92.4,1.92,1.52v.85C459.53,350.73,458.54,350.73,458.41,350.73Zm1.47,1.08V352a2.41,2.41,0,0,1-2.49,2.71c-.9,0-1.67-.42-1.67-1.35,0-1.26,1.17-1.57,2.9-1.57C459,351.77,459.44,351.79,459.88,351.81Z"/>
    <path class="cls-2" d="M465.1,355.62v-4.21c0-1.56.78-2.74,2.43-2.74h.38v-1.4a2.49,2.49,0,0,0-.36,0,2.67,2.67,0,0,0-2.5,1.84c0-.45,0-1.26,0-1.65h-1.37c0,.58,0,1.38,0,1.76v6.41Z"/>
    <path class="cls-2" d="M190.57,355.62H192v-4.21c0-1.56.79-2.74,2.43-2.74h.39v-1.4a2.56,2.56,0,0,0-.37,0,2.68,2.68,0,0,0-2.5,1.84c0-.45,0-1.26,0-1.65h-1.38c0,.58,0,1.38,0,1.76Z"/>
    <path class="cls-2" d="M199.43,355.81c2.6,0,3.92-1.76,3.92-4.37s-1.37-4.18-3.82-4.18-3.91,1.81-3.91,4.32S197,355.81,199.43,355.81Zm0-7.37c1.67,0,2.43,1.28,2.43,3s-.68,3.15-2.41,3.15-2.42-1.31-2.42-3.05S197.78,348.44,199.48,348.44Z"/>
    <path class="cls-2" d="M206.63,347.45h-1.39c0,.58,0,1.38,0,1.76v6.41h1.4v-4.34c0-1.6.58-2.8,2-2.8,1.2,0,1.58.73,1.58,2.14v5h1.43v-4.55c0-1.52.59-2.59,2-2.59,1.09,0,1.61.72,1.61,2v5.13h1.43v-5.09c0-1.94-.74-3.27-2.64-3.27a2.6,2.6,0,0,0-2.63,1.57,2.22,2.22,0,0,0-2.34-1.57,2.58,2.58,0,0,0-2.49,1.57C206.65,348.38,206.65,347.84,206.63,347.45Z"/>
    <path class="cls-2" d="M222.73,350.73c-2.74,0-4.13.8-4.13,2.69a2.45,2.45,0,0,0,2.74,2.39,3,3,0,0,0,2.89-1.57,7.49,7.49,0,0,0,.16,1.38h1.35c0-.24-.16-1.35-.16-1.73V350c0-1.91-1.14-2.77-3.28-2.77-1.84,0-3.19.77-3.27,2.56h1.36c.13-1,.8-1.44,1.87-1.44s1.93.4,1.93,1.52v.85C223.85,350.73,222.86,350.73,222.73,350.73Zm1.47,1.08V352a2.41,2.41,0,0,1-2.5,2.71c-.89,0-1.66-.42-1.66-1.35,0-1.26,1.17-1.57,2.9-1.57C223.32,351.77,223.75,351.79,224.2,351.81Z"/>
    <path class="cls-2" d="M234.84,355.62v-5c0-2-.73-3.38-2.78-3.38a2.7,2.7,0,0,0-2.69,1.58c0-.44,0-1,0-1.39H228c0,.58,0,1.38,0,1.76v6.41h1.41v-4.23c0-1.78.62-2.91,2.24-2.91,1.28,0,1.76.8,1.76,2.27v4.87Z"/>
    <polygon class="cls-2" points="652.84 344.28 651.38 344.28 651.05 345.96 652.5 345.96 652.84 344.28"/>
    <polygon class="cls-2" points="649.19 355.62 650.62 355.62 652.2 347.45 650.78 347.45 649.19 355.62"/>
    <path class="cls-2" d="M655.48,355.76a4.94,4.94,0,0,0,1.12-.11l.24-1.15a5.56,5.56,0,0,1-.82.08c-.78,0-.83-.36-.65-1.24l.91-4.69H658l.22-1.13H656.5l.49-2.47h-1.4l-.48,2.47H653.7l-.22,1.13h1.39l-.91,4.68C653.67,354.86,653.93,355.76,655.48,355.76Z"/>
    <path class="cls-2" d="M664,354.24a14,14,0,0,0-.24,1.38h1.36c0-.49.22-1.43.3-1.8l.9-4.54.37-1.83h-1.38c-.08.32-.19.87-.27,1.38a2,2,0,0,0-2.29-1.57c-2.24,0-3.84,1.91-4.29,4.24s.43,4.31,2.61,4.31A3.27,3.27,0,0,0,664,354.24Zm-4.1-2.58c.34-1.81,1.38-3.2,3-3.2s2,1.15,1.61,2.9-1.34,3.25-3,3.25C660,354.61,659.54,353.33,659.88,351.66Z"/>
    <polygon class="cls-2" points="671.14 344.28 669.74 344.28 667.53 355.62 668.94 355.62 671.14 344.28"/>
    <polygon class="cls-2" points="675.05 344.28 673.59 344.28 673.26 345.96 674.71 345.96 675.05 344.28"/>
    <polygon class="cls-2" points="671.4 355.62 672.82 355.62 674.41 347.45 672.98 347.45 671.4 355.62"/>
    <path class="cls-2" d="M679.8,348.46c1.15,0,1.75.53,1.67,1.68h1.34c.21-1.76-1-2.88-2.88-2.88-2.42,0-4.07,1.78-4.56,4.24s.46,4.31,3,4.31a3.94,3.94,0,0,0,4-2.93h-1.39a2.66,2.66,0,0,1-2.5,1.74c-1.53,0-1.95-1.25-1.61-2.89S678.15,348.46,679.8,348.46Z"/>
    <path class="cls-2" d="M658.9,416.81c1.92,0,3.37-.82,3.37-2.52,0-1.53-1.15-2.06-3.31-2.54-1.07-.24-1.87-.43-1.87-1.25s.73-1.14,1.7-1.14,1.87.4,2,1.4h1.35c-.05-1.59-1.39-2.5-3.25-2.5s-3.17.8-3.17,2.43c0,1.46,1.18,1.91,3.18,2.37,1.22.29,2,.48,2,1.33S660,415.7,659,415.7c-1.22,0-2-.49-2.16-1.61h-1.38C655.58,415.91,656.82,416.81,658.9,416.81Z"/>
    <path class="cls-2" d="M671.19,412.42c0-2.48-1.2-4.16-3.64-4.16s-3.84,1.81-3.84,4.34,1.39,4.21,3.75,4.21a3.35,3.35,0,0,0,3.61-2.66h-1.39a2,2,0,0,1-2.14,1.49c-1.56,0-2.29-1.15-2.36-2.79h6Zm-6-.65a2.25,2.25,0,0,1,2.3-2.34c1.47,0,2.16.85,2.24,2.34Z"/>
    <path class="cls-2" d="M676.51,409.65v-1.13h-1.76v-2.47h-1.39v2.47H672v1.13h1.37v4.74c0,1.54.39,2.37,1.89,2.37a4.62,4.62,0,0,0,1.22-.14v-1.11a3.49,3.49,0,0,1-.71.07c-.83,0-1-.42-1-1.3v-4.63Z"/>
    <rect class="cls-2" x="242.49" y="401.17" width="6.89" height="6.89"/>
  </g>
</svg>
