<svg id="Layer_1" data-name="Layer 1" xmlns="http://www.w3.org/2000/svg" viewBox="0 0 46 46">
  <defs>
    <style>
      .cls-1 {
        fill: #fff;
      }

      .cls-2 {
        fill: #474849;
        fill-rule: evenodd;
      }
    </style>
  </defs>
  <title>svg_symbool</title>
  <rect class="cls-1" width="46" height="46"/>
  <path class="cls-2" d="M13.24,19.58a83,83,0,0,1,10.25,6.85,86.62,86.62,0,0,1,10.27-6.85A10.13,10.13,0,0,1,36.5,18.5,14.82,14.82,0,0,1,34.27,21,98.88,98.88,0,0,1,23.49,29.5,100.28,100.28,0,0,1,12.73,21,14.82,14.82,0,0,1,10.5,18.5a10.13,10.13,0,0,1,2.74,1.08"/>
</svg>
