<svg id="Layer_1" data-name="Layer 1" xmlns="http://www.w3.org/2000/svg" viewBox="0 0 37 37">
  <defs>
    <style>
      .cls-1 {
        fill: #fff;
      }

      .cls-2 {
        fill: #474849;
      }
    </style>
  </defs>
  <title>svg_symbool</title>
  <rect class="cls-1" width="37" height="37"/>
  <path class="cls-2" d="M18.5,21.75a3.6,3.6,0,0,1-3-1.68c-1.63-2.62-2.21-4.29-2.21-6.37,0-3.47,1.91-5.45,5.25-5.45s5.25,2,5.25,5.45c0,2.16-.58,3.84-2.22,6.4A3.62,3.62,0,0,1,18.5,21.75Zm0-12C16,9.75,14.75,11,14.75,13.7c0,1.55.32,2.89,2,5.58a2.08,2.08,0,0,0,1.76,1,2.13,2.13,0,0,0,1.77-1c1.66-2.61,2-4,2-5.59C22.25,11.08,21,9.75,18.5,9.75Z"/>
  <path class="cls-2" d="M26.75,27.75H10.25V27c0-4,2-6.25,5.75-6.25v1.5c-2.63,0-4,1.31-4.22,4H25.22c-.21-2.69-1.59-4-4.22-4v-1.5c3.71,0,5.75,2.22,5.75,6.25Z"/>
</svg>
