<svg xmlns="http://www.w3.org/2000/svg" width="5168" height="5168"><path d="M1 2584v2583h5166V1H1v2583M2573.59 833.092c-103.625 125.959-624.044 686.276-778.313 837.982l-24.989 24.574-6.232 18.347c-23.471 69.105-95.372 230.719-189.528 426.005-21.469 44.528-89.36 180.559-110.547 221.5-48.458 93.638-86.57 162.478-107.308 193.825l-8.185 12.375 4.646 15.936c38.549 132.21 128.594 687.78 142.281 877.864.832 11.55 1.8 27.19 2.151 34.756l.64 13.756 8.647 6.223c52.01 37.425 196.114 165.866 340.147 303.174 144.091 137.364 276.512 272.356 304 309.904l3.5 4.781 7.5-.552c66.015-4.864 189.539-6.877 422-6.877 233.718 0 349.543 1.89 422 6.885l7.5.517 5.126-6.783c37.566-49.721 212.504-225.079 382.392-383.312 115.089-107.194 208.506-189.267 254.102-223.245l14.62-10.894.675-15.667c7.324-170.011 105.634-786.397 146.357-917.638l2.784-8.972-6.15-9.028c-40.59-59.584-154.901-280.362-259.414-501.028-76.021-160.508-133.864-293.308-151.798-348.507l-4.064-12.507-43.86-43.993c-181.013-181.562-644.146-680.711-756.896-815.757-6.996-8.38-12.98-15.338-13.297-15.463-.317-.125-5.037 5.193-10.487 11.819" fill="undefined" fill-rule="evenodd"/></svg>