<svg width="98px" height="24px" viewBox="0 0 98 24" version="1.1" xmlns="http://www.w3.org/2000/svg" xmlns:xlink="http://www.w3.org/1999/xlink">
    <defs>
        <polygon id="path-1" points="0.43742 0.1234 13.5017 0.1234 13.5017 19 0.43742 19"></polygon>
        <polygon id="path-3" points="0.748814502 0.1234 13.8132 0.1234 13.8132 19 0.748814502 19"></polygon>
        <polygon id="path-5" points="0.5408 0.1235 8.458 0.1235 8.458 13.9655 0.5408 13.9655"></polygon>
    </defs>
    <g id="Page-2" stroke="none" stroke-width="1" fill="none" fill-rule="evenodd">
        <g id="Group-18">
            <path d="M18.5189,8.2964 C18.5189,7.9824 18.5189,6.5144 18.4929,5.2554 L21.9799,5.2554 C22.0059,5.7274 22.0059,6.9854 22.0059,7.6144 C22.8449,5.9104 23.8409,5.1504 25.4669,4.9934 C25.7289,4.9674 26.1489,4.9414 26.4109,4.9414 L26.4109,8.5854 C26.1229,8.5594 25.9389,8.5594 25.8079,8.5594 C23.2389,8.5594 22.1369,9.6344 22.1369,12.3344 L22.1369,18.7834 L18.5189,18.7834 L18.5189,8.2964 Z" id="Fill-1" fill="#000000"></path>
            <g id="Group-5" transform="translate(44.000000, 4.817900)">
                <mask id="mask-2" fill="white">
                    <use xlink:href="#path-1"></use>
                </mask>
                <g id="Clip-4"></g>
                <path d="M9.7787,7.1494 C9.7787,4.8684 8.9657,3.1644 6.8687,3.1644 C4.6137,3.1644 3.9577,4.9474 3.9577,7.3334 C3.9577,9.6924 4.8497,11.2924 6.8417,11.2924 C8.9917,11.2924 9.7787,9.5614 9.7787,7.1494 L9.7787,7.1494 Z M0.4707,3.4784 C0.4707,3.1644 0.4187,1.6964 0.4447,0.4374 L3.9577,0.4374 C3.9837,0.9094 3.9837,1.8794 3.9837,2.4824 C4.7447,0.9094 6.2387,0.1234 8.0747,0.1234 C11.6667,0.1234 13.5017,3.0864 13.5017,7.0714 C13.5017,11.2394 11.5347,14.2814 7.7857,14.2814 C6.0287,14.2814 4.7707,13.7044 4.0627,12.2104 C4.0897,12.8384 4.0897,13.3364 4.0897,13.9654 L4.0897,19.0004 L0.4707,19.0004 L0.4707,3.4784 Z" id="Fill-3" fill="#000000" mask="url(#mask-2)"></path>
            </g>
            <g id="Group-8" transform="translate(59.000000, 4.817900)">
                <mask id="mask-4" fill="white">
                    <use xlink:href="#path-3"></use>
                </mask>
                <g id="Clip-7"></g>
                <path d="M10.0892,7.1494 C10.0892,4.8684 9.2772,3.1644 7.1792,3.1644 C4.9242,3.1644 4.2692,4.9474 4.2692,7.3334 C4.2692,9.6924 5.1602,11.2924 7.1522,11.2924 C9.3032,11.2924 10.0892,9.5614 10.0892,7.1494 L10.0892,7.1494 Z M0.7812,3.4784 C0.7812,3.1644 0.7302,1.6964 0.7562,0.4374 L4.2692,0.4374 C4.2952,0.9094 4.2952,1.8794 4.2952,2.4824 C5.0562,0.9094 6.5502,0.1234 8.3852,0.1234 C11.9772,0.1234 13.8132,3.0864 13.8132,7.0714 C13.8132,11.2394 11.8462,14.2814 8.0972,14.2814 C6.3402,14.2814 5.0812,13.7044 4.3742,12.2104 C4.4002,12.8384 4.4002,13.3364 4.4002,13.9654 L4.4002,19.0004 L0.7812,19.0004 L0.7812,3.4784 Z" id="Fill-6" fill="#000000" mask="url(#mask-4)"></path>
            </g>
            <path d="M83.7191,10.6304 C83.6151,8.7954 82.7761,7.7734 80.9921,7.7734 C79.1841,7.7734 78.2661,8.9524 78.1091,10.6304 L83.7191,10.6304 Z M74.4121,12.0714 C74.4121,7.6934 76.9811,4.9414 80.9661,4.9414 C85.1611,4.9414 87.3371,7.6144 87.3371,11.9414 C87.3371,12.2034 87.3371,12.5704 87.2841,12.9894 L78.0561,12.9894 C78.1611,15.0344 79.3411,16.2934 81.0971,16.2934 C82.4871,16.2934 83.1681,15.7694 83.5881,14.7204 L87.1541,14.7204 C86.5771,17.5774 84.2431,19.0994 80.9921,19.0994 C76.7721,19.0994 74.4121,16.4774 74.4121,12.0714 L74.4121,12.0714 Z" id="Fill-9" fill="#000000"></path>
            <g id="Group-13" transform="translate(89.000000, 4.817900)">
                <mask id="mask-6" fill="white">
                    <use xlink:href="#path-5"></use>
                </mask>
                <g id="Clip-12"></g>
                <path d="M0.5658,3.4785 C0.5658,3.1645 0.5658,1.6965 0.5408,0.4375 L4.0268,0.4375 C4.0528,0.9095 4.0528,2.1675 4.0528,2.7965 C4.8918,1.0925 5.8888,0.3325 7.5138,0.1755 C7.7768,0.1495 8.1958,0.1235 8.4588,0.1235 L8.4588,3.7675 C8.1698,3.7415 7.9858,3.7415 7.8548,3.7415 C5.2858,3.7415 4.1838,4.8165 4.1838,7.5165 L4.1838,13.9655 L0.5658,13.9655 L0.5658,3.4785 Z" id="Fill-11" fill="#000000" mask="url(#mask-6)"></path>
            </g>
            <path d="M0.0004,0.2222 L7.5204,0.2222 C13.0524,0.2222 15.9364,3.9182 15.9364,9.2412 C15.9364,14.7852 12.9474,18.7842 7.4414,18.7842 L0.0004,18.7842 L0.0004,0.2222 Z M7.1664,15.4812 C10.5624,15.4812 11.9294,12.7142 11.9294,9.3452 C11.9294,5.6362 10.5484,3.4992 7.1534,3.4992 L3.8624,3.4992 L3.8624,15.4812 L7.1664,15.4812 Z" id="Fill-14" fill="#000000"></path>
            <path d="M37.4105,18.7837 C37.6095,18.5107 38.4575,17.6627 39.2105,16.9467 C39.9625,16.2317 40.8525,15.4287 41.1365,15.2437 C41.1275,14.8877 41.2915,13.6587 41.4665,12.5587 C41.6415,11.4587 41.8645,10.2397 41.9825,9.9037 C41.7685,9.6127 41.2015,8.5127 40.6985,7.4757 C40.1965,6.4387 39.6875,5.3077 39.5925,4.9607 C39.2695,4.6617 38.1995,3.5357 37.2495,2.5147 C36.2995,1.4937 35.2535,0.3437 34.9775,0.0007 C34.7035,0.3437 33.6575,1.4937 32.7075,2.5147 C31.7575,3.5357 30.6865,4.6617 30.3645,4.9607 C30.2685,5.3077 29.7605,6.4387 29.2585,7.4757 C28.7555,8.5127 28.1875,9.6127 27.9735,9.9037 C28.0925,10.2397 28.3145,11.4587 28.4895,12.5587 C28.6645,13.6587 28.8295,14.8877 28.8195,15.2437 C29.1035,15.4287 29.9935,16.2317 30.7465,16.9467 C31.4995,17.6627 32.3475,18.5107 32.5465,18.7837 C32.8625,18.7507 33.9965,18.7387 34.9775,18.7387 C35.9605,18.7387 37.0945,18.7507 37.4105,18.7837" id="Fill-16" fill="#000000"></path>
        </g>
    </g>
</svg>
