
<svg width="33px" height="24px" viewBox="0 0 33 24" version="1.1" xmlns="http://www.w3.org/2000/svg" xmlns:xlink="http://www.w3.org/1999/xlink">
    <g id="Page-2" stroke="none" stroke-width="1" fill="none" fill-rule="evenodd">
        <g id="Group-5">
            <path d="M27.7748,18.784 C27.9728,18.511 28.8218,17.662 29.5738,16.947 C30.3268,16.232 31.2168,15.429 31.5008,15.244 C31.4918,14.888 31.6558,13.659 31.8308,12.558 C32.0048,11.459 32.2278,10.239 32.3468,9.904 C32.1328,9.612 31.5648,8.513 31.0628,7.475 C30.5598,6.439 30.0518,5.308 29.9568,4.96 C29.6338,4.661 28.5628,3.536 27.6128,2.514 C26.6628,1.494 25.6168,0.344 25.3418,0 C25.0678,0.344 24.0218,1.494 23.0718,2.514 C22.1218,3.536 21.0498,4.661 20.7278,4.96 C20.6318,5.308 20.1248,6.439 19.6218,7.475 C19.1198,8.513 18.5508,9.612 18.3368,9.904 C18.4568,10.239 18.6788,11.459 18.8538,12.558 C19.0288,13.658 19.1928,14.888 19.1838,15.244 C19.4668,15.429 20.3578,16.232 21.1108,16.947 C21.8628,17.662 22.7118,18.511 22.9098,18.784 C23.2268,18.75 24.3598,18.738 25.3418,18.738 C26.3248,18.738 27.4578,18.75 27.7748,18.784" id="Fill-1" fill="#000000"></path>
            <rect id="Rectangle" stroke="#FFFFFF" x="0.5" y="0.5" width="32" height="23"></rect>
            <path d="M0.0004,0.2215 L7.5204,0.2215 C13.0524,0.2215 15.9364,3.9185 15.9364,9.2415 C15.9364,14.7855 12.9474,18.7835 7.4414,18.7835 L0.0004,18.7835 L0.0004,0.2215 Z M7.1664,15.4805 C10.5624,15.4805 11.9294,12.7145 11.9294,9.3455 C11.9294,5.6355 10.5484,3.4985 7.1534,3.4985 L3.8624,3.4985 L3.8624,15.4805 L7.1664,15.4805 Z" id="Fill-3" fill="#000000"></path>
        </g>
    </g>
</svg>
