<svg id="Layer_1" data-name="Layer 1" xmlns="http://www.w3.org/2000/svg" viewBox="0 0 114 37">
  <defs>
    <style>
      .cls-1 {
        fill: #fff;
      }
    </style>
  </defs>
  <title>svg_symbool</title>
  <rect class="cls-1" width="114" height="37"/>
  <g>
    <path d="M27.52,16.3c0-.32,0-1.79,0-3H31c0,.47,0,1.73,0,2.36A4,4,0,0,1,34.47,13c.26,0,.68-.05.94-.05v3.65a5.26,5.26,0,0,0-.6,0c-2.57,0-3.67,1.07-3.67,3.77v6.45H27.52Z"/>
    <path d="M53.47,16.3c0-.32,0-1.79,0-3H57c0,.47,0,1.44,0,2a4.28,4.28,0,0,1,4.09-2.36c3.6,0,5.43,3,5.43,7,0,4.17-2,7.21-5.71,7.21A3.68,3.68,0,0,1,57.06,25c0,.63,0,1.12,0,1.75v5H53.47ZM62.78,20c0-2.28-.81-4-2.91-4C57.61,16,57,17.77,57,20.15s.89,4,2.88,4C62,24.11,62.78,22.38,62.78,20Z"/>
    <path d="M68.78,16.3c0-.32,0-1.79,0-3h3.51c0,.47,0,1.44,0,2a4.27,4.27,0,0,1,4.09-2.36c3.59,0,5.42,3,5.42,7,0,4.17-2,7.21-5.71,7.21A3.68,3.68,0,0,1,72.37,25c0,.63,0,1.12,0,1.75v5H68.78ZM78.09,20c0-2.28-.81-4-2.91-4-2.26,0-2.91,1.79-2.91,4.17s.89,4,2.88,4C77.3,24.11,78.09,22.38,78.09,20Z"/>
    <path d="M83.41,20.07c0-4.38,2.57-7.13,6.56-7.13,4.19,0,6.37,2.68,6.37,7a8.59,8.59,0,0,1,0,1H87.06c.1,2.05,1.28,3.3,3,3.3a2.31,2.31,0,0,0,2.49-1.57h3.56c-.57,2.86-2.91,4.38-6.16,4.38C85.77,27.1,83.41,24.48,83.41,20.07Zm9.31-1.44c-.11-1.83-.94-2.86-2.73-2.86S87.27,17,87.11,18.63Z"/>
    <path d="M98.57,16.3c0-.32,0-1.79,0-3H102c0,.47,0,1.73,0,2.36A4,4,0,0,1,105.51,13c.27,0,.69-.05.95-.05v3.65a5.26,5.26,0,0,0-.6,0c-2.57,0-3.68,1.07-3.68,3.77v6.45H98.57Z"/>
    <path d="M16.17,23.48c3.39,0,4.76-2.77,4.76-6.13,0-3.71-1.38-5.85-4.78-5.85H12.86v12ZM9,8.22h7.52c5.53,0,8.42,3.7,8.42,9,0,5.55-3,9.54-8.5,9.54H9Z"/>
    <path d="M46.41,26.78A25.2,25.2,0,0,1,48.21,25a23.21,23.21,0,0,1,1.93-1.71,24,24,0,0,1,.33-2.68A24.89,24.89,0,0,1,51,17.9a26.58,26.58,0,0,1-1.28-2.42A27.43,27.43,0,0,1,48.59,13c-.32-.3-1.39-1.42-2.34-2.44S44.25,8.34,44,8c-.28.34-1.32,1.49-2.27,2.52s-2,2.14-2.35,2.44a24.1,24.1,0,0,1-1.1,2.52A23.7,23.7,0,0,1,37,17.9a24.23,24.23,0,0,1,.52,2.66,24,24,0,0,1,.33,2.68c.28.19,1.17,1,1.93,1.71a25.2,25.2,0,0,1,1.8,1.83c.31,0,1.45,0,2.43,0S46.09,26.75,46.41,26.78Z"/>
  </g>
</svg>
