<svg id="Layer_1" data-name="Layer 1" xmlns="http://www.w3.org/2000/svg" viewBox="0 0 48 37">
  <defs>
    <style>
      .cls-1 {
        fill: #fff;
      }
    </style>
  </defs>
  <title>svg_symbool</title>
  <rect class="cls-1" width="48" height="37"/>
  <g>
    <path d="M36.77,26.78A25.2,25.2,0,0,1,38.57,25c.76-.72,1.65-1.52,1.93-1.71a26.69,26.69,0,0,1,.33-2.68,27,27,0,0,1,.52-2.66,26,26,0,0,1-1.29-2.42A24.1,24.1,0,0,1,39,13c-.33-.3-1.4-1.42-2.35-2.45s-2-2.17-2.27-2.51c-.27.34-1.32,1.49-2.27,2.51s-2,2.15-2.34,2.45a27.43,27.43,0,0,1-1.11,2.52,26.58,26.58,0,0,1-1.28,2.42,24.89,24.89,0,0,1,.51,2.66,24,24,0,0,1,.33,2.68A23.21,23.21,0,0,1,30.11,25a25.2,25.2,0,0,1,1.8,1.83c.32,0,1.45,0,2.43,0S36.46,26.75,36.77,26.78Z"/>
    <path d="M16.17,23.48c3.39,0,4.76-2.77,4.76-6.13,0-3.71-1.38-5.85-4.78-5.85H12.86v12ZM9,8.22h7.52c5.53,0,8.42,3.7,8.42,9,0,5.55-3,9.54-8.5,9.54H9Z"/>
  </g>
</svg>
